<svg xmlns="http://www.w3.org/2000/svg" xmlns:xlink="http://www.w3.org/1999/xlink" width="546" zoomAndPan="magnify" viewBox="0 0 409.5 409.500001" height="546" preserveAspectRatio="xMidYMid meet" version="1.0"><defs><clipPath id="b2a6753d8f"><path d="M 0 0 L 102.71875 0 L 102.71875 102.71875 L 0 102.71875 Z M 0 0 " clip-rule="nonzero"/></clipPath><clipPath id="9b33ebffe7"><path d="M 0 0 L 102.71875 0 L 102.71875 102.71875 L 0 102.71875 Z M 0 0 " clip-rule="nonzero"/></clipPath><clipPath id="8ed94794c8"><rect x="0" width="103" y="0" height="103"/></clipPath><clipPath id="53af543938"><path d="M 101.972656 0 L 204.691406 0 L 204.691406 102.71875 L 101.972656 102.71875 Z M 101.972656 0 " clip-rule="nonzero"/></clipPath><clipPath id="8f1876ef0b"><path d="M 0.972656 0 L 103.691406 0 L 103.691406 102.71875 L 0.972656 102.71875 Z M 0.972656 0 " clip-rule="nonzero"/></clipPath><clipPath id="9331678570"><rect x="0" width="104" y="0" height="103"/></clipPath><clipPath id="7a75bda51a"><path d="M 203.941406 0 L 306.660156 0 L 306.660156 102.71875 L 203.941406 102.71875 Z M 203.941406 0 " clip-rule="nonzero"/></clipPath><clipPath id="f7cb5434d7"><path d="M 0.941406 0 L 103.660156 0 L 103.660156 102.71875 L 0.941406 102.71875 Z M 0.941406 0 " clip-rule="nonzero"/></clipPath><clipPath id="764390325b"><rect x="0" width="104" y="0" height="103"/></clipPath><clipPath id="9638a5d2a0"><path d="M 305.914062 0 L 408.632812 0 L 408.632812 102.71875 L 305.914062 102.71875 Z M 305.914062 0 " clip-rule="nonzero"/></clipPath><clipPath id="9c3537f986"><path d="M 0.914062 0 L 103.632812 0 L 103.632812 102.71875 L 0.914062 102.71875 Z M 0.914062 0 " clip-rule="nonzero"/></clipPath><clipPath id="7a3916b918"><rect x="0" width="104" y="0" height="103"/></clipPath><clipPath id="81f8d5d91c"><path d="M 101.972656 101.972656 L 204.691406 101.972656 L 204.691406 204.691406 L 101.972656 204.691406 Z M 101.972656 101.972656 " clip-rule="nonzero"/></clipPath><clipPath id="275530269b"><path d="M 0.972656 0.972656 L 103.691406 0.972656 L 103.691406 103.691406 L 0.972656 103.691406 Z M 0.972656 0.972656 " clip-rule="nonzero"/></clipPath><clipPath id="bcad91b9cb"><rect x="0" width="104" y="0" height="104"/></clipPath><clipPath id="e8cdd4f413"><path d="M 203.941406 101.972656 L 306.660156 101.972656 L 306.660156 204.691406 L 203.941406 204.691406 Z M 203.941406 101.972656 " clip-rule="nonzero"/></clipPath><clipPath id="fb1436b228"><path d="M 0.941406 0.972656 L 103.660156 0.972656 L 103.660156 103.691406 L 0.941406 103.691406 Z M 0.941406 0.972656 " clip-rule="nonzero"/></clipPath><clipPath id="cb97d04815"><rect x="0" width="104" y="0" height="104"/></clipPath><clipPath id="24b87788b0"><path d="M 305.914062 101.972656 L 408.632812 101.972656 L 408.632812 204.691406 L 305.914062 204.691406 Z M 305.914062 101.972656 " clip-rule="nonzero"/></clipPath><clipPath id="686116c52c"><path d="M 0.914062 0.972656 L 103.632812 0.972656 L 103.632812 103.691406 L 0.914062 103.691406 Z M 0.914062 0.972656 " clip-rule="nonzero"/></clipPath><clipPath id="0a91927f6d"><rect x="0" width="104" y="0" height="104"/></clipPath><clipPath id="1487e5c204"><path d="M 0 101.972656 L 102.71875 101.972656 L 102.71875 204.691406 L 0 204.691406 Z M 0 101.972656 " clip-rule="nonzero"/></clipPath><clipPath id="2975f0a9b9"><path d="M 0 0.972656 L 102.71875 0.972656 L 102.71875 103.691406 L 0 103.691406 Z M 0 0.972656 " clip-rule="nonzero"/></clipPath><clipPath id="891bbd0ced"><rect x="0" width="103" y="0" height="104"/></clipPath><clipPath id="e1deb61201"><path d="M 0 203.941406 L 102.71875 203.941406 L 102.71875 306.660156 L 0 306.660156 Z M 0 203.941406 " clip-rule="nonzero"/></clipPath><clipPath id="1b65d11b91"><path d="M 0 0.941406 L 102.71875 0.941406 L 102.71875 103.660156 L 0 103.660156 Z M 0 0.941406 " clip-rule="nonzero"/></clipPath><clipPath id="2977fdaaaf"><rect x="0" width="103" y="0" height="104"/></clipPath><clipPath id="8724605b81"><path d="M 101.972656 203.941406 L 204.691406 203.941406 L 204.691406 306.660156 L 101.972656 306.660156 Z M 101.972656 203.941406 " clip-rule="nonzero"/></clipPath><clipPath id="4248035123"><path d="M 0.972656 0.941406 L 103.691406 0.941406 L 103.691406 103.660156 L 0.972656 103.660156 Z M 0.972656 0.941406 " clip-rule="nonzero"/></clipPath><clipPath id="e51e4003de"><rect x="0" width="104" y="0" height="104"/></clipPath><clipPath id="c413b98b12"><path d="M 203.941406 203.941406 L 306.660156 203.941406 L 306.660156 306.660156 L 203.941406 306.660156 Z M 203.941406 203.941406 " clip-rule="nonzero"/></clipPath><clipPath id="bb89ff182a"><path d="M 0.941406 0.941406 L 103.660156 0.941406 L 103.660156 103.660156 L 0.941406 103.660156 Z M 0.941406 0.941406 " clip-rule="nonzero"/></clipPath><clipPath id="207991f566"><rect x="0" width="104" y="0" height="104"/></clipPath><clipPath id="7f4590e812"><path d="M 305.914062 203.941406 L 408.632812 203.941406 L 408.632812 306.660156 L 305.914062 306.660156 Z M 305.914062 203.941406 " clip-rule="nonzero"/></clipPath><clipPath id="356ddc022c"><path d="M 0.914062 0.941406 L 103.632812 0.941406 L 103.632812 103.660156 L 0.914062 103.660156 Z M 0.914062 0.941406 " clip-rule="nonzero"/></clipPath><clipPath id="39e3105c1b"><rect x="0" width="104" y="0" height="104"/></clipPath><clipPath id="6329fb9c84"><path d="M 101.972656 305.914062 L 204.691406 305.914062 L 204.691406 408.632812 L 101.972656 408.632812 Z M 101.972656 305.914062 " clip-rule="nonzero"/></clipPath><clipPath id="a7d719d935"><path d="M 0.972656 0.914062 L 103.691406 0.914062 L 103.691406 103.632812 L 0.972656 103.632812 Z M 0.972656 0.914062 " clip-rule="nonzero"/></clipPath><clipPath id="e121bf488c"><rect x="0" width="104" y="0" height="104"/></clipPath><clipPath id="42ebb39d31"><path d="M 203.941406 305.914062 L 306.660156 305.914062 L 306.660156 408.632812 L 203.941406 408.632812 Z M 203.941406 305.914062 " clip-rule="nonzero"/></clipPath><clipPath id="67a50d4a10"><path d="M 0.941406 0.914062 L 103.660156 0.914062 L 103.660156 103.632812 L 0.941406 103.632812 Z M 0.941406 0.914062 " clip-rule="nonzero"/></clipPath><clipPath id="471251a5f2"><rect x="0" width="104" y="0" height="104"/></clipPath><clipPath id="5d414fb357"><path d="M 305.914062 305.914062 L 408.632812 305.914062 L 408.632812 408.632812 L 305.914062 408.632812 Z M 305.914062 305.914062 " clip-rule="nonzero"/></clipPath><clipPath id="15486acf8d"><path d="M 0.914062 0.914062 L 103.632812 0.914062 L 103.632812 103.632812 L 0.914062 103.632812 Z M 0.914062 0.914062 " clip-rule="nonzero"/></clipPath><clipPath id="c927c3ecc6"><rect x="0" width="104" y="0" height="104"/></clipPath><clipPath id="48759ecf5a"><path d="M 0 305.914062 L 102.71875 305.914062 L 102.71875 408.632812 L 0 408.632812 Z M 0 305.914062 " clip-rule="nonzero"/></clipPath><clipPath id="d7b54be38b"><path d="M 0 0.914062 L 102.71875 0.914062 L 102.71875 103.632812 L 0 103.632812 Z M 0 0.914062 " clip-rule="nonzero"/></clipPath><clipPath id="bf97e6d766"><rect x="0" width="103" y="0" height="104"/></clipPath></defs><path fill="#ffffff" d="M 0 0 L 409 0 L 409 409 L 0 409 Z M 0 0 " fill-opacity="1" fill-rule="nonzero"/><g clip-path="url(#b2a6753d8f)"><g transform="matrix(1, 0, 0, 1, 0, 0.000000000000011877)"><g clip-path="url(#8ed94794c8)"><g clip-path="url(#9b33ebffe7)"><path fill="#96a8d6" d="M 0 0 L 102.71875 0 L 102.71875 102.71875 L 0 102.71875 Z M 0 0 " fill-opacity="1" fill-rule="nonzero"/></g></g></g></g><g clip-path="url(#53af543938)"><g transform="matrix(1, 0, 0, 1, 101, 0.000000000000011877)"><g clip-path="url(#9331678570)"><g clip-path="url(#8f1876ef0b)"><path fill="#fff7e1" d="M 0.972656 0 L 103.691406 0 L 103.691406 102.71875 L 0.972656 102.71875 Z M 0.972656 0 " fill-opacity="1" fill-rule="nonzero"/></g></g></g></g><g clip-path="url(#7a75bda51a)"><g transform="matrix(1, 0, 0, 1, 203, 0.000000000000011877)"><g clip-path="url(#764390325b)"><g clip-path="url(#f7cb5434d7)"><path fill="#96a8d6" d="M 0.941406 0 L 103.660156 0 L 103.660156 102.71875 L 0.941406 102.71875 Z M 0.941406 0 " fill-opacity="1" fill-rule="nonzero"/></g></g></g></g><g clip-path="url(#9638a5d2a0)"><g transform="matrix(1, 0, 0, 1, 305, 0.000000000000011877)"><g clip-path="url(#7a3916b918)"><g clip-path="url(#9c3537f986)"><path fill="#fff7e1" d="M 0.914062 0 L 103.632812 0 L 103.632812 102.71875 L 0.914062 102.71875 Z M 0.914062 0 " fill-opacity="1" fill-rule="nonzero"/></g></g></g></g><g clip-path="url(#81f8d5d91c)"><g transform="matrix(1, 0, 0, 1, 101, 101)"><g clip-path="url(#bcad91b9cb)"><g clip-path="url(#275530269b)"><path fill="#96a8d6" d="M 0.972656 0.972656 L 103.691406 0.972656 L 103.691406 103.691406 L 0.972656 103.691406 Z M 0.972656 0.972656 " fill-opacity="1" fill-rule="nonzero"/></g></g></g></g><g clip-path="url(#e8cdd4f413)"><g transform="matrix(1, 0, 0, 1, 203, 101)"><g clip-path="url(#cb97d04815)"><g clip-path="url(#fb1436b228)"><path fill="#fff7e1" d="M 0.941406 0.972656 L 103.660156 0.972656 L 103.660156 103.691406 L 0.941406 103.691406 Z M 0.941406 0.972656 " fill-opacity="1" fill-rule="nonzero"/></g></g></g></g><g clip-path="url(#24b87788b0)"><g transform="matrix(1, 0, 0, 1, 305, 101)"><g clip-path="url(#0a91927f6d)"><g clip-path="url(#686116c52c)"><path fill="#96a8d6" d="M 0.914062 0.972656 L 103.632812 0.972656 L 103.632812 103.691406 L 0.914062 103.691406 Z M 0.914062 0.972656 " fill-opacity="1" fill-rule="nonzero"/></g></g></g></g><g clip-path="url(#1487e5c204)"><g transform="matrix(1, 0, 0, 1, 0, 101)"><g clip-path="url(#891bbd0ced)"><g clip-path="url(#2975f0a9b9)"><path fill="#fff7e1" d="M 0 0.972656 L 102.71875 0.972656 L 102.71875 103.691406 L 0 103.691406 Z M 0 0.972656 " fill-opacity="1" fill-rule="nonzero"/></g></g></g></g><g clip-path="url(#e1deb61201)"><g transform="matrix(1, 0, 0, 1, 0, 203)"><g clip-path="url(#2977fdaaaf)"><g clip-path="url(#1b65d11b91)"><path fill="#96a8d6" d="M 0 0.941406 L 102.71875 0.941406 L 102.71875 103.660156 L 0 103.660156 Z M 0 0.941406 " fill-opacity="1" fill-rule="nonzero"/></g></g></g></g><g clip-path="url(#8724605b81)"><g transform="matrix(1, 0, 0, 1, 101, 203)"><g clip-path="url(#e51e4003de)"><g clip-path="url(#4248035123)"><path fill="#fff7e1" d="M 0.972656 0.941406 L 103.691406 0.941406 L 103.691406 103.660156 L 0.972656 103.660156 Z M 0.972656 0.941406 " fill-opacity="1" fill-rule="nonzero"/></g></g></g></g><g clip-path="url(#c413b98b12)"><g transform="matrix(1, 0, 0, 1, 203, 203)"><g clip-path="url(#207991f566)"><g clip-path="url(#bb89ff182a)"><path fill="#96a8d6" d="M 0.941406 0.941406 L 103.660156 0.941406 L 103.660156 103.660156 L 0.941406 103.660156 Z M 0.941406 0.941406 " fill-opacity="1" fill-rule="nonzero"/></g></g></g></g><g clip-path="url(#7f4590e812)"><g transform="matrix(1, 0, 0, 1, 305, 203)"><g clip-path="url(#39e3105c1b)"><g clip-path="url(#356ddc022c)"><path fill="#fff7e1" d="M 0.914062 0.941406 L 103.632812 0.941406 L 103.632812 103.660156 L 0.914062 103.660156 Z M 0.914062 0.941406 " fill-opacity="1" fill-rule="nonzero"/></g></g></g></g><g clip-path="url(#6329fb9c84)"><g transform="matrix(1, 0, 0, 1, 101, 305)"><g clip-path="url(#e121bf488c)"><g clip-path="url(#a7d719d935)"><path fill="#96a8d6" d="M 0.972656 0.914062 L 103.691406 0.914062 L 103.691406 103.632812 L 0.972656 103.632812 Z M 0.972656 0.914062 " fill-opacity="1" fill-rule="nonzero"/></g></g></g></g><g clip-path="url(#42ebb39d31)"><g transform="matrix(1, 0, 0, 1, 203, 305)"><g clip-path="url(#471251a5f2)"><g clip-path="url(#67a50d4a10)"><path fill="#fff7e1" d="M 0.941406 0.914062 L 103.660156 0.914062 L 103.660156 103.632812 L 0.941406 103.632812 Z M 0.941406 0.914062 " fill-opacity="1" fill-rule="nonzero"/></g></g></g></g><g clip-path="url(#5d414fb357)"><g transform="matrix(1, 0, 0, 1, 305, 305)"><g clip-path="url(#c927c3ecc6)"><g clip-path="url(#15486acf8d)"><path fill="#96a8d6" d="M 0.914062 0.914062 L 103.632812 0.914062 L 103.632812 103.632812 L 0.914062 103.632812 Z M 0.914062 0.914062 " fill-opacity="1" fill-rule="nonzero"/></g></g></g></g><g clip-path="url(#48759ecf5a)"><g transform="matrix(1, 0, 0, 1, 0, 305)"><g clip-path="url(#bf97e6d766)"><g clip-path="url(#d7b54be38b)"><path fill="#fff7e1" d="M 0 0.914062 L 102.71875 0.914062 L 102.71875 103.632812 L 0 103.632812 Z M 0 0.914062 " fill-opacity="1" fill-rule="nonzero"/></g></g></g></g></svg>