<svg xmlns="http://www.w3.org/2000/svg" xmlns:xlink="http://www.w3.org/1999/xlink" width="781" zoomAndPan="magnify" viewBox="0 0 585.75 585.750004" height="781" preserveAspectRatio="xMidYMid meet" version="1.0"><defs><clipPath id="3704ae73bf"><path d="M 0 0 L 584.75 0 L 584.75 584.75 L 0 584.75 Z M 0 0 " clip-rule="nonzero"/></clipPath><clipPath id="3eb09dc84e"><path d="M 528.554688 25.210938 L 560.84375 25.210938 L 560.84375 74.496094 L 528.554688 74.496094 Z M 528.554688 25.210938 " clip-rule="nonzero"/></clipPath><clipPath id="cfab7f19bf"><path d="M 0.554688 0.210938 L 32.84375 0.210938 L 32.84375 49.496094 L 0.554688 49.496094 Z M 0.554688 0.210938 " clip-rule="nonzero"/></clipPath><clipPath id="491f274435"><rect x="0" width="33" y="0" height="50"/></clipPath></defs><g clip-path="url(#3704ae73bf)"><path fill="#000000" d="M 584.75 321.613281 L 584.75 497.039062 C 584.75 545.40625 545.40625 584.75 497.039062 584.75 L 87.710938 584.75 C 39.34375 584.75 0 545.40625 0 497.039062 L 0 87.710938 C 0 39.34375 39.34375 0 87.710938 0 L 263.136719 0 C 279.296875 0 292.375 13.078125 292.375 29.238281 C 292.375 45.398438 279.296875 58.476562 263.136719 58.476562 L 87.710938 58.476562 C 71.582031 58.476562 58.476562 71.582031 58.476562 87.710938 L 58.476562 497.039062 C 58.476562 513.171875 71.582031 526.273438 87.710938 526.273438 L 497.039062 526.273438 C 513.171875 526.273438 526.273438 513.171875 526.273438 497.039062 L 526.273438 321.613281 C 526.273438 305.453125 539.351562 292.375 555.511719 292.375 C 571.671875 292.375 584.75 305.453125 584.75 321.613281 Z M 555.511719 0 L 380.085938 0 C 363.925781 0 350.851562 13.078125 350.851562 29.238281 C 350.851562 45.398438 363.925781 58.476562 380.085938 58.476562 L 484.933594 58.476562 L 271.703125 271.703125 C 260.28125 283.125 260.28125 301.625 271.703125 313.046875 C 277.414062 318.757812 284.894531 321.613281 292.375 321.613281 C 299.855469 321.613281 307.335938 318.757812 313.046875 313.046875 L 526.273438 99.820312 L 526.273438 204.664062 C 526.273438 220.824219 539.351562 233.898438 555.511719 233.898438 C 571.671875 233.898438 584.75 220.824219 584.75 204.664062 L 584.75 29.238281 C 584.75 13.078125 571.671875 0 555.511719 0 Z M 555.511719 0 " fill-opacity="1" fill-rule="nonzero"/></g><g clip-path="url(#3eb09dc84e)"><g transform="matrix(1, 0, 0, 1, 528, 25)"><g clip-path="url(#491f274435)"><g clip-path="url(#cfab7f19bf)"><path fill="#000000" d="M 0.554688 0.210938 L 32.84375 0.210938 L 32.84375 49.527344 L 0.554688 49.527344 Z M 0.554688 0.210938 " fill-opacity="1" fill-rule="nonzero"/></g></g></g></g></svg>