<svg xmlns="http://www.w3.org/2000/svg" xmlns:xlink="http://www.w3.org/1999/xlink" width="69" zoomAndPan="magnify" viewBox="0 0 51.75 54" height="72" preserveAspectRatio="xMidYMid meet" version="1.0"><defs><clipPath id="c79921a67a"><path d="M 0.347656 0 L 51 0 L 51 53 L 0.347656 53 Z M 0.347656 0 " clip-rule="nonzero"/></clipPath><clipPath id="f79f20a4b1"><path d="M 0.347656 0 L 51 0 L 51 53 L 0.347656 53 Z M 0.347656 0 " clip-rule="nonzero"/></clipPath></defs><g clip-path="url(#c79921a67a)"><path fill="#000000" d="M 18.785156 52.695312 C 17.152344 52.695312 15.601562 51.96875 14.371094 50.609375 C 12.617188 48.679688 11.785156 45.796875 12.25 43.265625 C 12.753906 40.507812 14.21875 38.210938 16.148438 35.988281 C 13.8125 37.050781 11.246094 37.863281 8.574219 37.714844 C 6.078125 37.574219 3.574219 36.285156 2.03125 34.34375 C 0.84375 32.84375 0.351562 31.085938 0.648438 29.386719 C 1.253906 25.925781 4.671875 23.898438 7.59375 23.476562 C 9.734375 23.167969 11.871094 23.488281 13.886719 23.972656 C 11.609375 21.324219 10.136719 17.996094 9.757812 14.507812 C 9.527344 12.382812 9.820312 10.742188 10.65625 9.488281 C 11.53125 8.171875 12.976562 7.394531 14.730469 7.289062 C 16.972656 7.15625 19.371094 8.160156 20.804688 9.84375 C 21.128906 10.226562 21.421875 10.628906 21.679688 11.042969 C 21.96875 8.777344 22.609375 6.550781 23.59375 4.484375 C 24.671875 2.21875 26.042969 0.898438 27.664062 0.554688 C 30.296875 0 32.632812 2.195312 33.292969 4.554688 C 33.945312 6.875 33.367188 9.359375 32.902344 11.355469 C 32.121094 14.699219 31.324219 18.125 30.449219 21.121094 C 33.933594 17.855469 38.214844 15.378906 42.773438 14.027344 C 45.824219 13.128906 49.542969 13.449219 50.503906 16.285156 C 51.070312 17.964844 50.367188 19.902344 48.464844 21.886719 C 44.707031 25.8125 39.683594 28.4375 34.347656 29.339844 C 37.519531 30.710938 40.46875 32.617188 43.003906 34.945312 C 45.414062 37.164062 46.5625 39.277344 46.515625 41.40625 C 46.441406 44.625 43.28125 47.421875 39.734375 47.421875 C 39.714844 47.421875 39.695312 47.421875 39.675781 47.421875 C 36.738281 47.394531 33.742188 45.65625 31.667969 42.761719 C 30.660156 41.359375 29.921875 39.832031 29.308594 38.257812 C 28.875 41.882812 27.550781 45.378906 25.433594 48.394531 C 23.601562 51.003906 21.464844 52.484375 19.257812 52.675781 C 19.097656 52.6875 18.941406 52.695312 18.785156 52.695312 Z M 19.679688 32.617188 C 19.902344 32.617188 20.121094 32.71875 20.261719 32.910156 C 20.480469 33.199219 20.449219 33.605469 20.191406 33.863281 C 17.027344 36.992188 14.351562 39.878906 13.679688 43.527344 C 13.300781 45.597656 14.011719 48.050781 15.445312 49.632812 C 16.179688 50.441406 17.414062 51.371094 19.132812 51.226562 C 21.363281 51.035156 23.140625 49.125 24.242188 47.558594 C 26.964844 43.683594 28.28125 38.957031 27.957031 34.25 C 27.933594 33.878906 28.183594 33.550781 28.546875 33.484375 C 28.90625 33.414062 29.265625 33.625 29.375 33.976562 C 30.253906 36.726562 31.164062 39.566406 32.847656 41.914062 C 34.65625 44.429688 37.214844 45.945312 39.691406 45.964844 C 39.703125 45.964844 39.714844 45.964844 39.730469 45.964844 C 42.203125 45.964844 45 44.011719 45.058594 41.375 C 45.097656 39.6875 44.101562 37.933594 42.015625 36.019531 C 38.875 33.128906 35.058594 30.917969 30.980469 29.628906 C 30.640625 29.523438 30.429688 29.191406 30.476562 28.839844 C 30.523438 28.488281 30.816406 28.222656 31.167969 28.210938 C 37.265625 27.964844 43.1875 25.292969 47.414062 20.882812 C 48.460938 19.789062 49.609375 18.183594 49.125 16.75 C 48.425781 14.695312 45.195312 14.832031 43.1875 15.425781 C 37.875 16.996094 32.957031 20.175781 29.34375 24.375 C 29.113281 24.640625 28.726562 24.703125 28.425781 24.53125 C 28.121094 24.351562 27.988281 23.984375 28.105469 23.65625 C 29.355469 20.167969 30.4375 15.519531 31.484375 11.023438 C 31.933594 9.09375 32.441406 6.910156 31.890625 4.945312 C 31.40625 3.214844 29.710938 1.601562 27.964844 1.976562 C 26.808594 2.222656 25.78125 3.277344 24.90625 5.109375 C 23.59375 7.867188 22.933594 10.921875 22.957031 13.96875 C 23.5 15.816406 23.730469 17.867188 23.917969 20.058594 C 23.949219 20.425781 23.699219 20.761719 23.335938 20.832031 C 22.976562 20.90625 22.613281 20.695312 22.5 20.339844 C 21.867188 18.359375 21.539062 16.285156 21.503906 14.207031 C 21.105469 12.929688 20.539062 11.777344 19.695312 10.789062 C 18.566406 9.460938 16.613281 8.640625 14.816406 8.742188 C 13.90625 8.796875 12.65625 9.109375 11.867188 10.292969 C 11.230469 11.253906 11.011719 12.582031 11.207031 14.351562 C 11.648438 18.40625 13.695312 22.222656 16.828125 24.832031 C 17.09375 25.050781 17.167969 25.425781 17.007812 25.730469 C 16.847656 26.035156 16.496094 26.183594 16.164062 26.089844 C 13.558594 25.351562 10.609375 24.515625 7.800781 24.917969 C 5.308594 25.277344 2.542969 27.011719 2.085938 29.636719 C 1.796875 31.28125 2.515625 32.613281 3.171875 33.4375 C 4.441406 35.039062 6.59375 36.148438 8.65625 36.261719 C 12.488281 36.480469 16.285156 34.386719 19.328125 32.707031 C 19.4375 32.644531 19.558594 32.617188 19.679688 32.617188 Z M 19.679688 32.617188 " fill-opacity="1" fill-rule="nonzero"/></g><path fill="#000000" d="M 23.660156 32.367188 C 22.367188 32.367188 21 31.8125 19.871094 30.804688 C 18.675781 29.734375 18.089844 28.421875 18.265625 27.199219 C 18.488281 25.664062 19.792969 24.667969 20.945312 24.242188 C 22.40625 23.707031 24.101562 23.800781 25.488281 24.496094 C 26.875 25.191406 27.964844 26.492188 28.40625 27.980469 C 28.453125 28.136719 28.441406 28.308594 28.382812 28.460938 C 27.535156 30.539062 26.085938 31.96875 24.5 32.285156 C 24.226562 32.339844 23.945312 32.367188 23.660156 32.367188 Z M 22.917969 25.351562 C 22.417969 25.351562 21.914062 25.4375 21.445312 25.609375 C 20.726562 25.875 19.835938 26.503906 19.707031 27.40625 C 19.601562 28.125 20.027344 28.992188 20.839844 29.71875 C 21.882812 30.648438 23.140625 31.070312 24.214844 30.859375 C 25.246094 30.652344 26.273438 29.625 26.929688 28.152344 C 26.5625 27.144531 25.796875 26.277344 24.839844 25.796875 C 24.25 25.503906 23.582031 25.351562 22.917969 25.351562 Z M 22.917969 25.351562 " fill-opacity="1" fill-rule="nonzero"/><g clip-path="url(#f79f20a4b1)"><path fill="#000000" d="M 18.785156 52.695312 C 17.152344 52.695312 15.601562 51.96875 14.371094 50.609375 C 12.617188 48.679688 11.785156 45.796875 12.25 43.265625 C 12.753906 40.507812 14.21875 38.210938 16.148438 35.988281 C 13.8125 37.050781 11.246094 37.863281 8.574219 37.714844 C 6.078125 37.574219 3.574219 36.285156 2.03125 34.34375 C 0.84375 32.84375 0.351562 31.085938 0.648438 29.386719 C 1.253906 25.925781 4.671875 23.898438 7.59375 23.476562 C 9.734375 23.167969 11.871094 23.488281 13.886719 23.972656 C 11.609375 21.324219 10.136719 17.996094 9.757812 14.507812 C 9.527344 12.382812 9.820312 10.742188 10.65625 9.488281 C 11.53125 8.171875 12.976562 7.394531 14.730469 7.289062 C 16.972656 7.15625 19.371094 8.160156 20.804688 9.84375 C 21.128906 10.226562 21.421875 10.628906 21.679688 11.042969 C 21.96875 8.777344 22.609375 6.550781 23.59375 4.484375 C 24.671875 2.21875 26.042969 0.898438 27.664062 0.554688 C 30.296875 0 32.632812 2.195312 33.292969 4.554688 C 33.945312 6.875 33.367188 9.359375 32.902344 11.355469 C 32.121094 14.699219 31.324219 18.125 30.449219 21.121094 C 33.933594 17.855469 38.214844 15.378906 42.773438 14.027344 C 45.824219 13.128906 49.542969 13.449219 50.503906 16.285156 C 51.070312 17.964844 50.367188 19.902344 48.464844 21.886719 C 44.707031 25.8125 39.683594 28.4375 34.347656 29.339844 C 37.519531 30.710938 40.46875 32.617188 43.003906 34.945312 C 45.414062 37.164062 46.5625 39.277344 46.515625 41.40625 C 46.441406 44.625 43.28125 47.421875 39.734375 47.421875 C 39.714844 47.421875 39.695312 47.421875 39.675781 47.421875 C 36.738281 47.394531 33.742188 45.65625 31.667969 42.761719 C 30.660156 41.359375 29.921875 39.832031 29.308594 38.257812 C 28.875 41.882812 27.550781 45.378906 25.433594 48.394531 C 23.601562 51.003906 21.464844 52.484375 19.257812 52.675781 C 19.097656 52.6875 18.941406 52.695312 18.785156 52.695312 Z M 19.679688 32.617188 C 19.902344 32.617188 20.121094 32.71875 20.261719 32.910156 C 20.480469 33.199219 20.449219 33.605469 20.191406 33.863281 C 17.027344 36.992188 14.351562 39.878906 13.679688 43.527344 C 13.300781 45.597656 14.011719 48.050781 15.445312 49.632812 C 16.179688 50.441406 17.414062 51.371094 19.132812 51.226562 C 21.363281 51.035156 23.140625 49.125 24.242188 47.558594 C 26.964844 43.683594 28.28125 38.957031 27.957031 34.25 C 27.933594 33.878906 28.183594 33.550781 28.546875 33.484375 C 28.90625 33.414062 29.265625 33.625 29.375 33.976562 C 30.253906 36.726562 31.164062 39.566406 32.847656 41.914062 C 34.65625 44.429688 37.214844 45.945312 39.691406 45.964844 C 39.703125 45.964844 39.714844 45.964844 39.730469 45.964844 C 42.203125 45.964844 45 44.011719 45.058594 41.375 C 45.097656 39.6875 44.101562 37.933594 42.015625 36.019531 C 38.875 33.128906 35.058594 30.917969 30.980469 29.628906 C 30.640625 29.523438 30.429688 29.191406 30.476562 28.839844 C 30.523438 28.488281 30.816406 28.222656 31.167969 28.210938 C 37.265625 27.964844 43.1875 25.292969 47.414062 20.882812 C 48.460938 19.789062 49.609375 18.183594 49.125 16.75 C 48.425781 14.695312 45.195312 14.832031 43.1875 15.425781 C 37.875 16.996094 32.957031 20.175781 29.34375 24.375 C 29.113281 24.640625 28.726562 24.703125 28.425781 24.53125 C 28.121094 24.351562 27.988281 23.984375 28.105469 23.65625 C 29.355469 20.167969 30.4375 15.519531 31.484375 11.023438 C 31.933594 9.09375 32.441406 6.910156 31.890625 4.945312 C 31.40625 3.214844 29.710938 1.601562 27.964844 1.976562 C 26.808594 2.222656 25.78125 3.277344 24.90625 5.109375 C 23.59375 7.867188 22.933594 10.921875 22.957031 13.96875 C 23.5 15.816406 23.730469 17.867188 23.917969 20.058594 C 23.949219 20.425781 23.699219 20.761719 23.335938 20.832031 C 22.976562 20.90625 22.613281 20.695312 22.5 20.339844 C 21.867188 18.359375 21.539062 16.285156 21.503906 14.207031 C 21.105469 12.929688 20.539062 11.777344 19.695312 10.789062 C 18.566406 9.460938 16.613281 8.640625 14.816406 8.742188 C 13.90625 8.796875 12.65625 9.109375 11.867188 10.292969 C 11.230469 11.253906 11.011719 12.582031 11.207031 14.351562 C 11.648438 18.40625 13.695312 22.222656 16.828125 24.832031 C 17.09375 25.050781 17.167969 25.425781 17.007812 25.730469 C 16.847656 26.035156 16.496094 26.183594 16.164062 26.089844 C 13.558594 25.351562 10.609375 24.515625 7.800781 24.917969 C 5.308594 25.277344 2.542969 27.011719 2.085938 29.636719 C 1.796875 31.28125 2.515625 32.613281 3.171875 33.4375 C 4.441406 35.039062 6.59375 36.148438 8.65625 36.261719 C 12.488281 36.480469 16.285156 34.386719 19.328125 32.707031 C 19.4375 32.644531 19.558594 32.617188 19.679688 32.617188 Z M 19.679688 32.617188 " fill-opacity="1" fill-rule="nonzero"/></g><path fill="#000000" d="M 23.660156 32.367188 C 22.367188 32.367188 21 31.8125 19.871094 30.804688 C 18.675781 29.734375 18.089844 28.421875 18.265625 27.199219 C 18.488281 25.664062 19.792969 24.667969 20.945312 24.242188 C 22.40625 23.707031 24.101562 23.800781 25.488281 24.496094 C 26.875 25.191406 27.964844 26.492188 28.40625 27.980469 C 28.453125 28.136719 28.441406 28.308594 28.382812 28.460938 C 27.535156 30.539062 26.085938 31.96875 24.5 32.285156 C 24.226562 32.339844 23.945312 32.367188 23.660156 32.367188 Z M 22.917969 25.351562 C 22.417969 25.351562 21.914062 25.4375 21.445312 25.609375 C 20.726562 25.875 19.835938 26.503906 19.707031 27.40625 C 19.601562 28.125 20.027344 28.992188 20.839844 29.71875 C 21.882812 30.648438 23.140625 31.070312 24.214844 30.859375 C 25.246094 30.652344 26.273438 29.625 26.929688 28.152344 C 26.5625 27.144531 25.796875 26.277344 24.839844 25.796875 C 24.25 25.503906 23.582031 25.351562 22.917969 25.351562 Z M 22.917969 25.351562 " fill-opacity="1" fill-rule="nonzero"/></svg>