<svg xmlns="http://www.w3.org/2000/svg" xmlns:xlink="http://www.w3.org/1999/xlink" width="242" zoomAndPan="magnify" viewBox="0 0 181.5 139.500001" height="186" preserveAspectRatio="xMidYMid meet" version="1.0"><defs><clipPath id="dd6b04ea9a"><path d="M 37 33.402344 L 180.527344 33.402344 L 180.527344 138.773438 L 37 138.773438 Z M 37 33.402344 " clip-rule="nonzero"/></clipPath><clipPath id="e9dfcf7aea"><path d="M 0.0742188 0 L 107.6875 0 L 107.6875 42.597656 L 0.0742188 42.597656 Z M 0.0742188 0 " clip-rule="nonzero"/></clipPath></defs><g clip-path="url(#dd6b04ea9a)"><path fill="#96a8d6" d="M 179.308594 41.828125 C 178.425781 40.726562 177.0625 40.230469 175.691406 39.984375 C 172.21875 39.339844 168.691406 38.890625 165.191406 38.402344 C 150.902344 36.421875 136.550781 35.054688 122.136719 34.304688 C 114.941406 33.933594 107.738281 33.71875 100.523438 33.664062 C 97.425781 33.664062 94.167969 33.410156 91.117188 34.070312 C 89.679688 34.371094 88.382812 34.972656 87.222656 35.875 C 86.035156 36.878906 85.164062 38.109375 84.605469 39.566406 C 83.40625 42.453125 83.058594 45.71875 82.492188 48.777344 C 81.859375 52.277344 81.277344 55.785156 80.75 59.300781 C 79.664062 66.445312 78.785156 73.621094 78.105469 80.824219 C 77.941406 82.59375 77.789062 84.367188 77.644531 86.140625 C 77.636719 86.308594 77.664062 86.46875 77.726562 86.621094 C 69.949219 89.367188 62.496094 92.820312 55.371094 96.984375 C 51.453125 99.28125 47.667969 101.78125 44.011719 104.480469 C 40.785156 106.863281 35.644531 109.964844 37.554688 114.730469 C 39.207031 118.800781 43.8125 120.894531 47.757812 122.015625 C 49.847656 122.609375 51.996094 123.007812 54.128906 123.425781 L 61.707031 124.910156 L 92.019531 130.855469 L 122.332031 136.796875 C 124.78125 137.277344 127.222656 137.800781 129.683594 138.210938 C 132.050781 138.675781 134.4375 138.847656 136.847656 138.726562 C 141.3125 138.378906 145.054688 136.246094 148.167969 133.109375 C 151.355469 129.898438 153.925781 126.074219 156.632812 122.476562 L 165.925781 110.082031 C 166.382812 109.472656 166.859375 108.855469 167.28125 108.214844 C 167.332031 108.152344 167.375 108.085938 167.410156 108.019531 C 168.148438 106.96875 168.523438 105.800781 168.527344 104.519531 C 172.316406 92.214844 175.296875 79.722656 177.464844 67.035156 C 178.640625 60.136719 179.683594 53.164062 180.273438 46.191406 C 180.414062 44.675781 180.304688 43.070312 179.308594 41.828125 Z M 165.027344 107.113281 C 164.535156 107.816406 163.953125 108.460938 163.542969 109.007812 L 159.046875 114.988281 C 156.121094 118.886719 153.207031 122.800781 150.269531 126.683594 C 147.988281 129.683594 145.46875 132.738281 142.121094 134.585938 C 138.234375 136.726562 133.769531 136.34375 129.5625 135.578125 C 119.871094 133.824219 110.21875 131.792969 100.554688 129.898438 L 71.21875 124.152344 L 56.710938 121.308594 C 52.660156 120.511719 48.308594 119.972656 44.585938 118.074219 C 42.910156 117.25 41.199219 116.058594 40.238281 114.390625 C 39.746094 113.632812 39.605469 112.816406 39.8125 111.9375 C 40.109375 111.125 40.597656 110.445312 41.273438 109.902344 C 42.847656 108.511719 44.507812 107.226562 46.242188 106.039062 C 48.019531 104.75 49.828125 103.507812 51.671875 102.3125 C 59.023438 97.535156 66.785156 93.566406 74.960938 90.402344 C 76.941406 89.636719 78.9375 88.921875 80.949219 88.257812 C 81.066406 88.21875 81.179688 88.164062 81.28125 88.09375 L 109.976562 92.792969 L 139.40625 97.609375 L 154.042969 100.003906 C 156.429688 100.398438 158.832031 100.734375 161.199219 101.191406 C 162.945312 101.527344 165.097656 102.121094 165.847656 103.953125 C 165.890625 104.0625 165.925781 104.175781 165.949219 104.289062 C 165.621094 105.21875 165.332031 106.167969 165.027344 107.113281 Z M 177.535156 47.84375 C 177.359375 49.484375 177.171875 51.121094 176.972656 52.757812 C 176.570312 56.082031 176.109375 59.398438 175.585938 62.707031 C 173.535156 75.675781 170.640625 88.453125 166.894531 101.039062 C 166.105469 100.285156 165.207031 99.714844 164.191406 99.324219 C 162.015625 98.464844 159.542969 98.289062 157.25 97.914062 L 149.613281 96.664062 L 119.0625 91.660156 L 88.519531 86.660156 L 81.136719 85.449219 C 80.84375 85.398438 80.558594 85.429688 80.285156 85.539062 C 81.386719 71.835938 83.25 58.242188 85.875 44.75 C 86.34375 42.328125 86.863281 39.410156 88.941406 37.808594 C 91.023438 36.210938 93.949219 36.261719 96.449219 36.261719 C 103.410156 36.261719 110.367188 36.402344 117.324219 36.683594 C 131.320312 37.269531 145.273438 38.445312 159.1875 40.210938 C 162.609375 40.644531 166.027344 41.117188 169.445312 41.625 C 171.15625 41.882812 172.863281 42.140625 174.574219 42.421875 C 175.5625 42.582031 176.980469 42.742188 177.488281 43.753906 C 178.09375 44.898438 177.664062 46.601562 177.535156 47.84375 Z M 177.535156 47.84375 " fill-opacity="1" fill-rule="nonzero"/></g><path fill="#96a8d6" d="M 77.4375 112.835938 L 76.792969 113.5625 C 73.949219 115.058594 71.675781 117.167969 69.96875 119.894531 C 77.660156 121.113281 85.359375 122.332031 92.914062 124.230469 C 95.625 124.917969 98.425781 125.691406 101.175781 125.160156 C 103.921875 124.628906 106.542969 122.292969 106.335938 119.507812 C 97.007812 115.96875 87.375 113.742188 77.4375 112.835938 Z M 77.4375 112.835938 " fill-opacity="1" fill-rule="nonzero"/><path fill="#96a8d6" d="M 154.417969 104.828125 C 154.296875 104.707031 154.15625 104.613281 153.996094 104.546875 C 153.839844 104.484375 153.675781 104.449219 153.503906 104.449219 C 153.335938 104.449219 153.167969 104.484375 153.011719 104.546875 C 152.855469 104.613281 152.714844 104.707031 152.59375 104.828125 C 151.890625 105.679688 151.164062 106.511719 150.429688 107.332031 C 148.019531 107.105469 145.609375 106.859375 143.203125 106.59375 C 143.910156 106.015625 144.625 105.441406 145.355469 104.890625 C 145.5 104.800781 145.621094 104.6875 145.71875 104.550781 C 145.820312 104.414062 145.890625 104.261719 145.933594 104.097656 C 145.980469 103.933594 145.988281 103.769531 145.96875 103.601562 C 145.949219 103.429688 145.898438 103.273438 145.820312 103.125 C 145.730469 102.976562 145.621094 102.851562 145.484375 102.75 C 145.347656 102.644531 145.195312 102.574219 145.03125 102.53125 C 144.867188 102.484375 144.699219 102.476562 144.53125 102.496094 C 144.359375 102.519531 144.203125 102.574219 144.054688 102.660156 C 142.566406 103.792969 141.117188 104.972656 139.707031 106.191406 C 138.132812 106.003906 136.5625 105.8125 134.992188 105.605469 L 136.574219 104.394531 C 136.714844 104.304688 136.835938 104.191406 136.9375 104.054688 C 137.039062 103.917969 137.109375 103.765625 137.152344 103.601562 C 137.195312 103.4375 137.207031 103.273438 137.183594 103.101562 C 137.164062 102.933594 137.113281 102.777344 137.03125 102.628906 C 136.945312 102.480469 136.832031 102.355469 136.699219 102.253906 C 136.5625 102.148438 136.410156 102.074219 136.246094 102.03125 C 136.078125 101.988281 135.910156 101.976562 135.742188 102 C 135.574219 102.023438 135.414062 102.078125 135.265625 102.164062 L 131.414062 105.132812 C 129.441406 104.859375 127.46875 104.578125 125.496094 104.28125 C 126.277344 103.648438 127.050781 103 127.8125 102.34375 C 127.929688 102.222656 128.019531 102.082031 128.085938 101.921875 C 128.148438 101.765625 128.179688 101.601562 128.179688 101.429688 C 128.179688 101.257812 128.148438 101.09375 128.085938 100.9375 C 128.019531 100.777344 127.929688 100.636719 127.8125 100.515625 C 127.6875 100.398438 127.546875 100.308594 127.390625 100.246094 C 127.230469 100.179688 127.066406 100.148438 126.898438 100.148438 C 126.726562 100.148438 126.5625 100.179688 126.40625 100.246094 C 126.246094 100.308594 126.105469 100.398438 125.984375 100.515625 C 124.703125 101.621094 123.398438 102.699219 122.074219 103.75 L 121.625 103.675781 C 119.902344 103.398438 118.183594 103.109375 116.460938 102.808594 C 117.566406 101.941406 118.667969 101.0625 119.746094 100.15625 C 119.863281 100.035156 119.957031 99.894531 120.023438 99.734375 C 120.085938 99.578125 120.117188 99.414062 120.117188 99.242188 C 120.117188 99.074219 120.085938 98.910156 120.023438 98.75 C 119.957031 98.59375 119.863281 98.453125 119.746094 98.332031 C 119.625 98.214844 119.484375 98.121094 119.324219 98.058594 C 119.167969 97.996094 119.003906 97.964844 118.832031 97.964844 C 118.660156 97.964844 118.496094 97.996094 118.339844 98.058594 C 118.179688 98.121094 118.039062 98.214844 117.917969 98.332031 C 116.328125 99.667969 114.691406 100.957031 113.035156 102.203125 C 110.882812 101.8125 108.738281 101.40625 106.59375 100.984375 C 107.472656 100.253906 108.335938 99.503906 109.175781 98.726562 C 110.394531 97.59375 108.566406 95.769531 107.355469 96.902344 C 106.058594 98.105469 104.71875 99.25 103.332031 100.332031 C 101.96875 100.050781 100.609375 99.769531 99.25 99.472656 C 100.652344 98.636719 102.046875 97.777344 103.425781 96.890625 C 104.820312 96.003906 103.527344 93.792969 102.117188 94.667969 C 99.957031 96.042969 97.761719 97.371094 95.53125 98.648438 C 93.835938 98.265625 92.144531 97.882812 90.449219 97.480469 C 89.777344 97.324219 89.113281 97.160156 88.441406 96.996094 L 89.109375 96.617188 C 90.558594 95.8125 89.257812 93.582031 87.800781 94.394531 C 86.792969 94.949219 85.792969 95.527344 84.785156 96.097656 C 83.570312 95.796875 82.367188 95.488281 81.171875 95.171875 L 84.222656 93.625 C 85.699219 92.859375 84.394531 90.628906 82.921875 91.394531 L 77.414062 94.207031 C 76.007812 93.828125 74.605469 93.441406 73.207031 93.054688 C 71.601562 92.605469 70.917969 95.121094 72.519531 95.542969 L 74.027344 95.957031 L 67.515625 99.324219 L 63.75 98.664062 C 63.585938 98.621094 63.421875 98.613281 63.25 98.636719 C 63.082031 98.660156 62.925781 98.714844 62.777344 98.796875 C 62.628906 98.882812 62.503906 98.992188 62.394531 99.125 C 62.289062 99.257812 62.210938 99.402344 62.160156 99.566406 C 62.117188 99.730469 62.105469 99.898438 62.128906 100.066406 C 62.148438 100.238281 62.203125 100.394531 62.289062 100.542969 C 62.371094 100.691406 62.480469 100.820312 62.617188 100.925781 C 62.75 101.03125 62.902344 101.105469 63.066406 101.152344 L 63.75 101.273438 L 61.53125 102.421875 C 60.054688 103.1875 61.355469 105.417969 62.832031 104.652344 L 67.933594 102.019531 L 73.355469 102.980469 C 72.09375 103.777344 70.832031 104.585938 69.582031 105.40625 C 68.199219 106.3125 69.488281 108.550781 70.882812 107.636719 C 72.949219 106.277344 75.035156 104.949219 77.148438 103.65625 L 83.863281 104.84375 C 82.78125 105.367188 81.699219 105.882812 80.621094 106.390625 C 80.472656 106.480469 80.347656 106.589844 80.242188 106.726562 C 80.140625 106.863281 80.066406 107.011719 80.023438 107.179688 C 79.980469 107.34375 79.96875 107.511719 79.992188 107.679688 C 80.015625 107.851562 80.070312 108.007812 80.15625 108.15625 C 80.246094 108.300781 80.359375 108.425781 80.492188 108.527344 C 80.628906 108.625 80.78125 108.699219 80.945312 108.742188 C 81.109375 108.785156 81.277344 108.796875 81.445312 108.777344 C 81.613281 108.753906 81.773438 108.703125 81.921875 108.621094 C 84.011719 107.65625 86.074219 106.652344 88.117188 105.617188 L 93.703125 106.609375 C 92.40625 107.304688 91.089844 107.976562 89.753906 108.597656 C 89.605469 108.683594 89.484375 108.796875 89.378906 108.933594 C 89.277344 109.070312 89.203125 109.21875 89.160156 109.382812 C 89.117188 109.550781 89.105469 109.71875 89.128906 109.886719 C 89.152344 110.054688 89.203125 110.214844 89.289062 110.363281 C 89.378906 110.507812 89.492188 110.628906 89.628906 110.730469 C 89.765625 110.832031 89.914062 110.902344 90.078125 110.945312 C 90.242188 110.988281 90.410156 111 90.578125 110.976562 C 90.746094 110.957031 90.90625 110.90625 91.054688 110.820312 C 93.328125 109.769531 95.539062 108.601562 97.6875 107.316406 L 103.9375 108.421875 C 102.867188 109.085938 101.792969 109.738281 100.703125 110.367188 C 99.269531 111.199219 100.566406 113.429688 102.003906 112.597656 C 103.9375 111.476562 105.824219 110.304688 107.683594 109.09375 L 113.40625 110.125 C 112.128906 110.984375 110.84375 111.828125 109.546875 112.648438 C 108.144531 113.53125 109.441406 115.746094 110.851562 114.875 C 112.9375 113.554688 114.992188 112.179688 117.015625 110.746094 L 122.800781 111.777344 L 116.253906 116.816406 C 116.113281 116.90625 115.988281 117.019531 115.890625 117.15625 C 115.789062 117.292969 115.714844 117.441406 115.671875 117.605469 C 115.628906 117.769531 115.617188 117.9375 115.640625 118.105469 C 115.660156 118.273438 115.710938 118.433594 115.789062 118.582031 C 116.109375 119.097656 117.003906 119.476562 117.558594 119.046875 L 126.210938 112.386719 L 130.492188 113.144531 L 132.25 113.453125 C 131.507812 114.28125 130.769531 115.113281 130.054688 115.96875 C 129.9375 116.09375 129.847656 116.234375 129.785156 116.390625 C 129.722656 116.550781 129.691406 116.714844 129.691406 116.882812 C 129.691406 117.054688 129.722656 117.21875 129.785156 117.375 C 129.847656 117.535156 129.9375 117.675781 130.054688 117.796875 C 130.179688 117.917969 130.320312 118.007812 130.476562 118.074219 C 130.636719 118.136719 130.800781 118.171875 130.96875 118.171875 C 131.140625 118.171875 131.304688 118.136719 131.464844 118.074219 C 131.621094 118.007812 131.761719 117.917969 131.882812 117.796875 C 132.96875 116.492188 134.097656 115.214844 135.261719 113.992188 L 142.402344 115.257812 C 141.191406 116.308594 139.949219 117.328125 138.671875 118.3125 C 138.554688 118.4375 138.460938 118.574219 138.398438 118.734375 C 138.332031 118.890625 138.300781 119.054688 138.300781 119.226562 C 138.300781 119.398438 138.332031 119.5625 138.398438 119.722656 C 138.460938 119.878906 138.554688 120.019531 138.671875 120.140625 C 138.796875 120.257812 138.9375 120.347656 139.09375 120.410156 C 139.253906 120.472656 139.417969 120.507812 139.585938 120.507812 C 139.757812 120.507812 139.921875 120.472656 140.078125 120.410156 C 140.238281 120.347656 140.378906 120.257812 140.5 120.140625 C 142.265625 118.765625 143.976562 117.328125 145.632812 115.828125 L 149.507812 116.515625 C 149.671875 116.558594 149.835938 116.566406 150.003906 116.542969 C 150.171875 116.519531 150.328125 116.464844 150.476562 116.382812 C 150.625 116.300781 150.75 116.191406 150.855469 116.058594 C 150.964844 115.925781 151.042969 115.78125 151.089844 115.617188 C 151.140625 115.453125 151.15625 115.285156 151.136719 115.113281 C 151.121094 114.941406 151.070312 114.777344 150.988281 114.625 C 150.90625 114.472656 150.796875 114.34375 150.664062 114.234375 C 150.527344 114.125 150.378906 114.046875 150.214844 113.996094 L 148.003906 113.605469 C 149.207031 112.441406 150.367188 111.238281 151.503906 109.992188 L 153.222656 110.152344 C 153.394531 110.148438 153.558594 110.113281 153.714844 110.046875 C 153.871094 109.980469 154.011719 109.890625 154.132812 109.769531 C 154.253906 109.648438 154.34375 109.507812 154.410156 109.351562 C 154.476562 109.195312 154.511719 109.03125 154.515625 108.859375 C 154.515625 108.574219 154.429688 108.316406 154.253906 108.089844 C 154.078125 107.863281 153.851562 107.714844 153.574219 107.640625 C 153.863281 107.304688 154.152344 106.96875 154.429688 106.609375 C 154.542969 106.484375 154.625 106.347656 154.683594 106.195312 C 154.742188 106.039062 154.769531 105.878906 154.769531 105.714844 C 154.765625 105.550781 154.738281 105.390625 154.675781 105.238281 C 154.613281 105.085938 154.527344 104.949219 154.417969 104.828125 Z M 76.617188 100.941406 L 71.691406 100.0625 L 77.703125 96.964844 C 78.988281 97.308594 80.273438 97.652344 81.566406 97.996094 C 79.90625 98.953125 78.257812 99.933594 76.617188 100.941406 Z M 87.703125 102.90625 L 82.761719 102.027344 L 80.460938 101.621094 C 82.007812 100.679688 83.574219 99.765625 85.15625 98.871094 C 87.492188 99.449219 89.832031 100.007812 92.175781 100.546875 C 90.691406 101.355469 89.199219 102.144531 87.703125 102.90625 Z M 97.171875 104.585938 L 91.871094 103.644531 C 93.246094 102.910156 94.605469 102.164062 95.945312 101.398438 C 97.472656 101.742188 99.003906 102.070312 100.535156 102.386719 C 99.421875 103.148438 98.308594 103.886719 97.171875 104.585938 Z M 107.132812 106.355469 L 100.9375 105.25 C 101.96875 104.558594 102.964844 103.835938 103.953125 103.085938 C 106.015625 103.507812 108.089844 103.910156 110.171875 104.289062 C 109.152344 104.992188 108.148438 105.679688 107.132812 106.355469 Z M 116.425781 108.003906 L 110.789062 107 C 111.757812 106.3125 112.722656 105.625 113.679688 104.9375 C 115.546875 105.28125 117.421875 105.601562 119.296875 105.902344 C 118.332031 106.609375 117.367188 107.3125 116.40625 108.003906 Z M 125.582031 109.625 L 119.941406 108.621094 C 120.902344 107.914062 121.847656 107.1875 122.785156 106.453125 C 124.71875 106.753906 126.648438 107.042969 128.574219 107.320312 Z M 134.382812 111.171875 L 128.992188 110.21875 L 132.132812 107.800781 L 135.230469 108.214844 L 137.175781 108.453125 C 136.210938 109.34375 135.269531 110.253906 134.363281 111.1875 Z M 144.847656 113.03125 L 137.472656 111.71875 C 138.46875 110.738281 139.488281 109.785156 140.53125 108.859375 C 143.105469 109.152344 145.675781 109.429688 148.25 109.6875 C 147.148438 110.84375 146.007812 111.960938 144.828125 113.046875 Z M 144.847656 113.03125 " fill-opacity="1" fill-rule="nonzero"/><path fill="#96a8d6" d="M 173.273438 43.835938 L 123.363281 40.214844 L 98.410156 38.402344 L 95.3125 38.183594 C 94.355469 38.046875 93.394531 38.023438 92.433594 38.105469 C 90.207031 38.445312 89.894531 40.480469 89.550781 42.328125 C 88.796875 46.367188 88.046875 50.402344 87.300781 54.441406 C 85.578125 63.601562 83.878906 72.769531 82.195312 81.945312 C 82.148438 82.109375 82.136719 82.277344 82.160156 82.445312 C 82.179688 82.613281 82.234375 82.773438 82.316406 82.921875 C 82.402344 83.070312 82.511719 83.195312 82.644531 83.300781 C 82.78125 83.40625 82.929688 83.484375 83.09375 83.53125 C 91.910156 85.152344 100.734375 86.742188 109.574219 88.238281 C 118.351562 89.71875 127.128906 91.113281 135.90625 92.367188 C 140.382812 93.003906 144.84375 93.601562 149.300781 94.15625 C 151.527344 94.433594 153.753906 94.699219 155.980469 94.949219 C 157.074219 95.078125 158.167969 95.199219 159.265625 95.316406 C 160.289062 95.492188 161.320312 95.582031 162.363281 95.585938 C 162.863281 95.582031 163.339844 95.46875 163.792969 95.253906 C 164.246094 95.035156 164.628906 94.730469 164.945312 94.339844 C 165.492188 93.503906 165.882812 92.597656 166.121094 91.625 C 166.773438 89.613281 167.359375 87.578125 167.871094 85.523438 C 168.894531 81.328125 169.628906 77.082031 170.074219 72.785156 C 170.941406 64.605469 171.015625 56.238281 173.492188 48.328125 C 173.796875 47.363281 174.132812 46.410156 174.527344 45.476562 C 174.851562 44.628906 174.019531 43.890625 173.273438 43.835938 Z M 173.273438 43.835938 " fill-opacity="1" fill-rule="nonzero"/><path fill="#96a8d6" d="M 99.285156 77.710938 C 99.285156 78.382812 99.25 79.054688 99.179688 79.71875 L 99.132812 80.203125 L 99.105469 80.445312 C 99.074219 80.699219 99.105469 80.277344 99.105469 80.445312 C 99.058594 80.78125 99.003906 81.117188 98.945312 81.480469 C 98.902344 81.644531 98.890625 81.8125 98.914062 81.980469 C 98.933594 82.148438 98.988281 82.308594 99.070312 82.457031 C 99.15625 82.605469 99.265625 82.730469 99.398438 82.835938 C 99.53125 82.945312 99.679688 83.019531 99.84375 83.070312 C 101.1875 83.347656 102.546875 83.527344 103.921875 83.613281 C 104.210938 83.609375 104.472656 83.519531 104.703125 83.339844 C 104.933594 83.164062 105.085938 82.9375 105.164062 82.65625 C 105.421875 81.894531 105.636719 81.121094 105.8125 80.332031 C 106.011719 79.414062 106.289062 78.363281 105.707031 77.515625 C 105.125 76.667969 104.160156 76.480469 103.261719 76.320312 C 102.398438 76.148438 101.527344 76.039062 100.648438 75.996094 C 100.476562 75.996094 100.3125 76.03125 100.15625 76.097656 C 99.996094 76.160156 99.855469 76.253906 99.734375 76.375 C 99.617188 76.496094 99.523438 76.636719 99.457031 76.792969 C 99.390625 76.953125 99.355469 77.117188 99.355469 77.289062 C 99.359375 77.457031 99.394531 77.621094 99.460938 77.777344 C 99.527344 77.933594 99.621094 78.074219 99.742188 78.191406 C 99.863281 78.3125 100 78.40625 100.15625 78.472656 C 100.3125 78.539062 100.476562 78.574219 100.648438 78.578125 C 101 78.578125 101.351562 78.621094 101.679688 78.660156 L 101.90625 78.660156 C 102.082031 78.6875 102.257812 78.71875 102.421875 78.753906 C 102.757812 78.816406 103.089844 78.894531 103.414062 78.980469 L 103.667969 79.046875 C 103.71875 79.046875 103.898438 79.144531 103.703125 79.046875 C 103.507812 78.949219 103.703125 79.074219 103.730469 79.074219 C 103.574219 78.941406 103.535156 78.910156 103.605469 78.96875 C 103.679688 79.03125 103.648438 78.96875 103.519531 78.839844 C 103.636719 79.027344 103.445312 78.628906 103.492188 78.785156 C 103.539062 78.941406 103.492188 78.484375 103.492188 78.71875 C 103.496094 78.757812 103.496094 78.800781 103.492188 78.839844 C 103.492188 78.941406 103.492188 78.894531 103.519531 78.703125 C 103.5 78.769531 103.484375 78.839844 103.480469 78.910156 C 103.421875 79.238281 103.347656 79.570312 103.269531 79.898438 C 103.109375 80.582031 102.917969 81.253906 102.695312 81.917969 L 103.941406 80.96875 C 103.636719 80.96875 103.332031 80.925781 103.027344 80.902344 C 102.722656 80.875 102.417969 80.804688 102.117188 80.796875 C 102.207031 80.796875 102.339844 80.828125 102.175781 80.796875 L 101.933594 80.761719 L 101.503906 80.695312 L 100.550781 80.515625 L 101.433594 82.140625 C 101.703125 80.679688 101.847656 79.203125 101.867188 77.714844 C 101.863281 77.546875 101.832031 77.382812 101.765625 77.222656 C 101.699219 77.066406 101.605469 76.925781 101.484375 76.804688 C 101.363281 76.683594 101.226562 76.59375 101.066406 76.527344 C 100.910156 76.460938 100.746094 76.425781 100.574219 76.425781 C 100.40625 76.429688 100.242188 76.464844 100.085938 76.53125 C 99.929688 76.597656 99.789062 76.691406 99.667969 76.8125 C 99.550781 76.929688 99.457031 77.070312 99.390625 77.226562 C 99.324219 77.382812 99.289062 77.546875 99.285156 77.714844 Z M 99.285156 77.710938 " fill-opacity="1" fill-rule="nonzero"/><path fill="#96a8d6" d="M 108.671875 79.273438 C 108.671875 79.945312 108.628906 80.617188 108.566406 81.289062 L 108.519531 81.773438 L 108.492188 82.015625 C 108.460938 82.269531 108.515625 81.847656 108.492188 82.015625 C 108.445312 82.351562 108.386719 82.6875 108.332031 83.050781 C 108.289062 83.214844 108.277344 83.378906 108.300781 83.550781 C 108.324219 83.71875 108.375 83.875 108.460938 84.023438 C 108.542969 84.171875 108.652344 84.296875 108.785156 84.402344 C 108.917969 84.507812 109.066406 84.585938 109.230469 84.632812 C 110.574219 84.914062 111.933594 85.097656 113.308594 85.183594 C 113.601562 85.175781 113.863281 85.082031 114.09375 84.902344 C 114.324219 84.722656 114.476562 84.488281 114.550781 84.207031 C 114.804688 83.449219 115.019531 82.683594 115.191406 81.902344 C 115.394531 80.984375 115.671875 79.925781 115.089844 79.085938 C 114.503906 78.242188 113.539062 78.050781 112.636719 77.890625 C 111.769531 77.714844 110.894531 77.609375 110.011719 77.566406 C 109.84375 77.566406 109.679688 77.601562 109.519531 77.664062 C 109.363281 77.730469 109.222656 77.824219 109.101562 77.945312 C 108.980469 78.066406 108.886719 78.207031 108.820312 78.363281 C 108.757812 78.523438 108.722656 78.6875 108.722656 78.855469 C 108.726562 79.027344 108.761719 79.191406 108.828125 79.347656 C 108.894531 79.503906 108.988281 79.640625 109.109375 79.761719 C 109.230469 79.882812 109.367188 79.976562 109.523438 80.042969 C 109.679688 80.109375 109.84375 80.144531 110.011719 80.148438 C 110.363281 80.148438 110.714844 80.1875 111.046875 80.230469 C 111.085938 80.230469 111.359375 80.273438 111.160156 80.230469 C 110.957031 80.1875 111.230469 80.230469 111.273438 80.230469 L 111.789062 80.316406 C 112.121094 80.386719 112.449219 80.457031 112.78125 80.546875 L 113.027344 80.617188 C 113.085938 80.617188 113.265625 80.714844 113.066406 80.617188 C 112.863281 80.519531 113.066406 80.617188 113.097656 80.617188 C 112.941406 80.488281 112.898438 80.453125 112.972656 80.519531 C 113.042969 80.585938 113.011719 80.546875 112.882812 80.390625 C 113.003906 80.578125 112.8125 80.179688 112.859375 80.328125 C 112.90625 80.476562 112.859375 80.035156 112.859375 80.265625 C 112.859375 80.304688 112.859375 80.347656 112.859375 80.386719 C 112.859375 80.488281 112.859375 80.441406 112.859375 80.246094 C 112.835938 80.316406 112.824219 80.386719 112.820312 80.457031 C 112.761719 80.789062 112.6875 81.117188 112.609375 81.449219 C 112.449219 82.128906 112.257812 82.800781 112.039062 83.46875 L 113.28125 82.519531 C 112.976562 82.519531 112.671875 82.476562 112.367188 82.445312 C 112.0625 82.414062 111.757812 82.351562 111.460938 82.34375 C 111.546875 82.34375 111.679688 82.375 111.515625 82.34375 L 111.273438 82.3125 L 110.84375 82.238281 C 110.523438 82.1875 110.210938 82.125 109.890625 82.058594 L 110.820312 83.691406 C 111.085938 82.226562 111.230469 80.75 111.253906 79.257812 C 111.246094 79.089844 111.207031 78.929688 111.136719 78.777344 C 111.066406 78.621094 110.972656 78.488281 110.847656 78.371094 C 110.726562 78.253906 110.585938 78.164062 110.429688 78.101562 C 110.273438 78.039062 110.109375 78.007812 109.941406 78.011719 C 109.769531 78.015625 109.609375 78.050781 109.453125 78.117188 C 109.296875 78.183594 109.15625 78.277344 109.035156 78.398438 C 108.917969 78.515625 108.824219 78.65625 108.757812 78.8125 C 108.691406 78.96875 108.652344 79.132812 108.648438 79.300781 Z M 108.671875 79.273438 " fill-opacity="1" fill-rule="nonzero"/><path fill="#96a8d6" d="M 118.0625 80.535156 C 118.0625 81.207031 118.019531 81.878906 117.960938 82.546875 L 117.914062 83.035156 L 117.882812 83.277344 C 117.851562 83.523438 117.90625 83.105469 117.882812 83.277344 C 117.835938 83.613281 117.777344 83.949219 117.722656 84.308594 C 117.679688 84.472656 117.667969 84.640625 117.691406 84.808594 C 117.714844 84.976562 117.765625 85.136719 117.851562 85.285156 C 117.933594 85.429688 118.042969 85.558594 118.175781 85.664062 C 118.308594 85.769531 118.457031 85.847656 118.621094 85.894531 C 119.964844 86.175781 121.328125 86.355469 122.699219 86.441406 C 122.988281 86.4375 123.25 86.347656 123.480469 86.171875 C 123.707031 85.996094 123.863281 85.769531 123.945312 85.492188 C 124.199219 84.730469 124.410156 83.957031 124.582031 83.171875 C 124.785156 82.25 125.0625 81.195312 124.480469 80.347656 C 123.898438 79.503906 122.929688 79.316406 122.027344 79.160156 C 121.164062 78.984375 120.289062 78.875 119.40625 78.835938 C 119.234375 78.835938 119.070312 78.871094 118.910156 78.9375 C 118.753906 79 118.613281 79.09375 118.492188 79.214844 C 118.371094 79.335938 118.28125 79.476562 118.214844 79.632812 C 118.148438 79.792969 118.113281 79.957031 118.113281 80.128906 C 118.117188 80.296875 118.152344 80.460938 118.21875 80.617188 C 118.289062 80.773438 118.382812 80.910156 118.5 81.03125 C 118.621094 81.152344 118.757812 81.246094 118.914062 81.3125 C 119.070312 81.378906 119.234375 81.414062 119.40625 81.417969 C 119.757812 81.417969 120.105469 81.460938 120.4375 81.5 C 120.480469 81.5 120.753906 81.542969 120.550781 81.5 C 120.351562 81.460938 120.625 81.5 120.664062 81.5 L 121.179688 81.589844 C 121.511719 81.65625 121.84375 81.726562 122.171875 81.816406 L 122.421875 81.882812 C 122.476562 81.882812 122.65625 81.984375 122.457031 81.882812 C 122.253906 81.78125 122.457031 81.882812 122.488281 81.882812 C 122.332031 81.75 122.292969 81.71875 122.363281 81.785156 C 122.4375 81.851562 122.40625 81.785156 122.277344 81.65625 C 122.394531 81.839844 122.203125 81.445312 122.25 81.59375 C 122.296875 81.742188 122.25 81.300781 122.25 81.527344 C 122.253906 81.566406 122.253906 81.609375 122.25 81.648438 C 122.25 81.753906 122.25 81.707031 122.25 81.511719 C 122.226562 81.578125 122.214844 81.648438 122.214844 81.71875 C 122.152344 82.054688 122.078125 82.382812 122.003906 82.707031 C 121.84375 83.390625 121.652344 84.066406 121.429688 84.726562 L 122.671875 83.78125 C 122.367188 83.78125 122.0625 83.742188 121.757812 83.710938 C 121.453125 83.679688 121.148438 83.617188 120.851562 83.605469 C 120.9375 83.605469 121.074219 83.636719 120.90625 83.605469 L 120.664062 83.570312 L 120.234375 83.503906 C 119.917969 83.445312 119.601562 83.390625 119.28125 83.324219 L 120.183594 84.90625 C 120.453125 83.445312 120.597656 81.96875 120.617188 80.484375 C 120.617188 80.3125 120.582031 80.148438 120.515625 79.992188 C 120.453125 79.832031 120.359375 79.695312 120.238281 79.574219 C 120.117188 79.453125 119.976562 79.359375 119.820312 79.292969 C 119.664062 79.226562 119.5 79.195312 119.328125 79.191406 C 119.15625 79.195312 118.992188 79.230469 118.835938 79.296875 C 118.679688 79.363281 118.542969 79.457031 118.421875 79.578125 C 118.300781 79.699219 118.207031 79.835938 118.140625 79.992188 C 118.074219 80.148438 118.039062 80.3125 118.035156 80.484375 Z M 118.0625 80.535156 " fill-opacity="1" fill-rule="nonzero"/><path fill="#96a8d6" d="M 127.449219 82.105469 C 127.449219 82.777344 127.40625 83.445312 127.347656 84.113281 C 127.347656 84.277344 127.316406 84.4375 127.292969 84.597656 C 127.292969 84.679688 127.292969 84.761719 127.269531 84.839844 C 127.238281 85.09375 127.292969 84.671875 127.269531 84.839844 C 127.222656 85.175781 127.164062 85.511719 127.109375 85.875 C 127.066406 86.039062 127.054688 86.207031 127.078125 86.375 C 127.101562 86.542969 127.152344 86.703125 127.238281 86.851562 C 127.320312 87 127.429688 87.125 127.5625 87.230469 C 127.695312 87.335938 127.84375 87.414062 128.007812 87.464844 C 129.355469 87.734375 130.714844 87.90625 132.085938 87.980469 C 132.375 87.976562 132.632812 87.886719 132.863281 87.714844 C 133.09375 87.539062 133.25 87.3125 133.328125 87.035156 C 133.582031 86.273438 133.796875 85.503906 133.96875 84.722656 C 134.171875 83.804688 134.449219 82.75 133.867188 81.902344 C 133.285156 81.054688 132.316406 80.871094 131.414062 80.710938 C 130.546875 80.535156 129.675781 80.425781 128.792969 80.386719 C 128.621094 80.386719 128.457031 80.417969 128.296875 80.484375 C 128.140625 80.550781 128 80.644531 127.878906 80.765625 C 127.757812 80.886719 127.667969 81.023438 127.601562 81.183594 C 127.535156 81.339844 127.5 81.503906 127.5 81.675781 C 127.503906 81.847656 127.539062 82.007812 127.605469 82.167969 C 127.671875 82.324219 127.765625 82.460938 127.886719 82.582031 C 128.007812 82.703125 128.144531 82.796875 128.300781 82.863281 C 128.457031 82.929688 128.621094 82.964844 128.792969 82.96875 C 129.144531 82.96875 129.488281 83.007812 129.824219 83.050781 L 130.050781 83.050781 L 130.566406 83.140625 C 130.898438 83.203125 131.230469 83.28125 131.558594 83.371094 L 131.808594 83.4375 C 131.863281 83.4375 132.042969 83.535156 131.84375 83.4375 C 131.640625 83.339844 131.84375 83.4375 131.875 83.4375 C 131.71875 83.300781 131.671875 83.269531 131.75 83.339844 C 131.828125 83.40625 131.792969 83.339844 131.664062 83.210938 C 131.78125 83.390625 131.589844 82.996094 131.636719 83.148438 C 131.683594 83.296875 131.636719 82.847656 131.636719 83.082031 C 131.640625 83.121094 131.640625 83.164062 131.636719 83.203125 C 131.636719 83.300781 131.636719 83.257812 131.636719 83.066406 C 131.613281 83.132812 131.601562 83.199219 131.601562 83.269531 C 131.539062 83.601562 131.464844 83.933594 131.386719 84.261719 C 131.230469 84.945312 131.039062 85.617188 130.808594 86.28125 L 132.058594 85.332031 C 131.753906 85.332031 131.449219 85.289062 131.144531 85.265625 C 130.839844 85.238281 130.535156 85.171875 130.238281 85.160156 C 130.324219 85.160156 130.460938 85.191406 130.289062 85.160156 L 130.050781 85.125 L 129.621094 85.058594 L 128.667969 84.878906 L 129.570312 86.460938 C 129.839844 85 129.984375 83.523438 130.003906 82.039062 C 130.003906 81.867188 129.96875 81.703125 129.902344 81.546875 C 129.839844 81.386719 129.746094 81.25 129.625 81.128906 C 129.503906 81.007812 129.363281 80.914062 129.207031 80.847656 C 129.050781 80.78125 128.886719 80.75 128.714844 80.746094 C 128.542969 80.75 128.378906 80.785156 128.222656 80.851562 C 128.066406 80.917969 127.929688 81.011719 127.808594 81.132812 C 127.6875 81.253906 127.59375 81.390625 127.527344 81.546875 C 127.460938 81.703125 127.425781 81.867188 127.421875 82.039062 Z M 127.449219 82.105469 " fill-opacity="1" fill-rule="nonzero"/><path fill="#96a8d6" d="M 136.839844 83.363281 C 136.839844 84.035156 136.800781 84.707031 136.738281 85.371094 C 136.738281 85.53125 136.707031 85.699219 136.6875 85.859375 C 136.6875 85.941406 136.6875 86.019531 136.660156 86.101562 C 136.628906 86.355469 136.6875 85.929688 136.660156 86.101562 C 136.613281 86.4375 136.558594 86.773438 136.5 87.132812 C 136.457031 87.296875 136.449219 87.464844 136.46875 87.632812 C 136.492188 87.804688 136.546875 87.960938 136.628906 88.109375 C 136.710938 88.257812 136.820312 88.386719 136.953125 88.492188 C 137.085938 88.597656 137.234375 88.675781 137.398438 88.722656 C 138.746094 88.992188 140.105469 89.164062 141.476562 89.238281 C 141.765625 89.238281 142.027344 89.148438 142.253906 88.972656 C 142.484375 88.796875 142.640625 88.574219 142.722656 88.296875 C 142.972656 87.539062 143.1875 86.769531 143.363281 85.992188 C 143.5625 85.074219 143.84375 84.015625 143.257812 83.171875 C 142.675781 82.332031 141.710938 82.167969 140.804688 81.980469 C 139.941406 81.804688 139.066406 81.695312 138.183594 81.65625 C 138.011719 81.65625 137.847656 81.6875 137.691406 81.753906 C 137.53125 81.820312 137.394531 81.914062 137.273438 82.035156 C 137.152344 82.15625 137.058594 82.296875 136.992188 82.453125 C 136.925781 82.609375 136.894531 82.773438 136.890625 82.945312 C 136.894531 83.117188 136.929688 83.28125 136.996094 83.4375 C 137.0625 83.59375 137.15625 83.730469 137.277344 83.851562 C 137.398438 83.972656 137.535156 84.066406 137.691406 84.132812 C 137.851562 84.199219 138.011719 84.234375 138.183594 84.238281 C 138.535156 84.238281 138.878906 84.277344 139.214844 84.320312 L 139.441406 84.320312 C 139.617188 84.320312 139.789062 84.375 139.960938 84.414062 C 140.289062 84.472656 140.621094 84.550781 140.949219 84.632812 L 141.199219 84.707031 C 141.253906 84.707031 141.4375 84.804688 141.234375 84.707031 C 141.035156 84.609375 141.234375 84.707031 141.265625 84.707031 C 141.109375 84.574219 141.070312 84.535156 141.140625 84.605469 C 141.214844 84.671875 141.183594 84.605469 141.054688 84.472656 C 141.171875 84.660156 140.980469 84.261719 141.027344 84.417969 C 141.074219 84.574219 141.027344 84.117188 141.027344 84.351562 C 141.03125 84.390625 141.03125 84.433594 141.027344 84.472656 C 141.027344 84.574219 141.027344 84.527344 141.027344 84.335938 C 141.003906 84.402344 140.992188 84.472656 140.992188 84.542969 C 140.929688 84.871094 140.859375 85.203125 140.78125 85.53125 C 140.621094 86.214844 140.429688 86.886719 140.203125 87.550781 L 141.453125 86.601562 C 141.148438 86.601562 140.84375 86.558594 140.539062 86.535156 C 140.234375 86.507812 139.929688 86.4375 139.628906 86.425781 C 139.714844 86.425781 139.851562 86.460938 139.679688 86.425781 L 139.441406 86.390625 L 139.015625 86.316406 C 138.695312 86.265625 138.375 86.203125 138.058594 86.136719 L 138.964844 87.726562 C 139.230469 86.265625 139.375 84.789062 139.398438 83.300781 C 139.394531 83.132812 139.363281 82.96875 139.296875 82.808594 C 139.230469 82.652344 139.136719 82.511719 139.015625 82.394531 C 138.894531 82.273438 138.753906 82.179688 138.597656 82.113281 C 138.441406 82.046875 138.277344 82.011719 138.105469 82.011719 C 137.9375 82.015625 137.773438 82.050781 137.617188 82.117188 C 137.460938 82.183594 137.320312 82.277344 137.199219 82.398438 C 137.082031 82.515625 136.988281 82.65625 136.921875 82.8125 C 136.851562 82.96875 136.816406 83.132812 136.816406 83.300781 Z M 136.839844 83.363281 " fill-opacity="1" fill-rule="nonzero"/><g clip-path="url(#e9dfcf7aea)"><path fill="#96a8d6" d="M 69.152344 34.121094 C 69.871094 34.234375 70.566406 34.429688 71.238281 34.695312 C 72.082031 35.019531 72.839844 35.480469 73.515625 36.082031 L 73.527344 36.101562 C 74.175781 36.773438 74.617188 37.730469 74.539062 38.628906 C 74.488281 39.351562 74.175781 39.929688 73.601562 40.371094 C 73.027344 40.867188 72.375 41.214844 71.640625 41.40625 C 70.699219 41.683594 69.667969 41.789062 68.777344 41.953125 C 66.894531 42.265625 65.003906 42.347656 63.105469 42.191406 C 61.171875 42.058594 59.234375 41.773438 57.34375 41.492188 C 56.53125 41.371094 55.730469 41.234375 54.933594 41.128906 C 54.324219 41.054688 53.707031 40.996094 53.089844 40.964844 C 51.597656 40.878906 50.097656 40.886719 48.609375 40.75 C 47.296875 40.632812 46.003906 40.382812 44.699219 40.242188 C 44.167969 40.179688 43.636719 40.140625 43.097656 40.132812 C 42.363281 40.132812 41.632812 40.160156 40.898438 40.210938 C 39.132812 40.34375 37.367188 40.597656 35.59375 40.683594 C 34.109375 40.761719 32.621094 40.8125 31.132812 40.835938 C 27.691406 40.910156 24.226562 40.890625 20.785156 40.992188 L 20.765625 40.992188 C 20.160156 40.972656 19.550781 40.949219 18.929688 40.957031 C 17.511719 40.972656 16.0625 41.042969 14.605469 41.101562 C 13.203125 41.15625 11.800781 41.234375 10.417969 41.191406 C 8.882812 41.15625 7.363281 40.976562 5.863281 40.65625 C 4.988281 40.441406 4.070312 40.441406 3.214844 40.1875 C 2.769531 40.0625 2.351562 39.871094 1.960938 39.617188 C 1.371094 39.320312 0.910156 38.882812 0.582031 38.308594 C 0.25 37.734375 0.101562 37.117188 0.140625 36.453125 C 0.210938 35.214844 0.671875 34.144531 1.523438 33.242188 C 2.304688 32.457031 3.21875 31.886719 4.265625 31.523438 C 5.691406 31 7.277344 30.8125 8.714844 30.695312 C 9.109375 30.664062 9.792969 30.707031 10.4375 30.695312 C 10.222656 30.480469 10.050781 30.3125 10.015625 30.277344 C 9.371094 29.632812 8.707031 28.835938 8.367188 27.957031 C 8.074219 27.242188 8.035156 26.511719 8.246094 25.769531 C 8.894531 23.597656 10.5 22.117188 12.464844 21.300781 C 14.195312 20.609375 15.988281 20.378906 17.835938 20.605469 C 18.496094 16.667969 21.492188 13.15625 25.230469 11.457031 C 27.09375 10.597656 29.046875 10.246094 31.09375 10.398438 C 32.445312 10.527344 33.722656 10.902344 34.925781 11.53125 C 35.671875 11.894531 36.367188 12.339844 37.011719 12.867188 C 37.703125 13.386719 38.316406 13.980469 38.855469 14.652344 C 39.613281 15.65625 40.246094 16.730469 40.757812 17.878906 L 40.757812 17.894531 C 40.949219 18.363281 41.113281 19.265625 41.375 19.953125 C 41.417969 20.0625 41.453125 20.167969 41.496094 20.253906 C 41.515625 20.296875 41.539062 20.335938 41.570312 20.371094 C 41.625 20.410156 41.695312 20.382812 41.765625 20.371094 C 41.878906 20.328125 41.988281 20.273438 42.09375 20.210938 C 42.527344 19.945312 42.945312 19.652344 43.347656 19.335938 C 43.597656 19.144531 43.867188 18.988281 44.160156 18.871094 L 44.179688 18.871094 C 45.160156 18.640625 46.113281 18.722656 47.039062 19.125 C 47.589844 17.4375 48.675781 15.953125 50.011719 14.742188 C 50.5625 14.210938 51.167969 13.753906 51.832031 13.363281 C 52.867188 12.820312 53.964844 12.492188 55.128906 12.378906 C 55.761719 12.3125 56.394531 12.296875 57.03125 12.339844 C 57.652344 12.378906 58.269531 12.464844 58.878906 12.597656 L 59.414062 12.734375 C 59.332031 12.351562 59.199219 11.933594 59.121094 11.539062 C 59.015625 11.101562 58.980469 10.65625 59.011719 10.203125 C 59.171875 8.65625 59.6875 7.234375 60.5625 5.945312 C 61.378906 4.714844 62.363281 3.640625 63.515625 2.722656 C 64.472656 1.925781 65.53125 1.304688 66.695312 0.863281 C 67.855469 0.417969 69.058594 0.171875 70.300781 0.125 C 71.546875 0.0703125 72.769531 0.226562 73.960938 0.589844 C 75.152344 0.953125 76.25 1.507812 77.253906 2.25 C 78.378906 3.003906 79.300781 3.683594 79.875 4.648438 C 80.039062 4.925781 80.167969 5.21875 80.265625 5.527344 C 80.765625 4.984375 81.300781 4.472656 81.867188 3.996094 C 82.316406 3.585938 82.792969 3.210938 83.304688 2.878906 C 84.523438 2.164062 85.839844 1.769531 87.253906 1.691406 L 87.265625 1.691406 C 88.542969 1.664062 90.242188 2.21875 91.644531 3.074219 C 92.636719 3.675781 93.488281 4.414062 93.929688 5.253906 C 94.382812 6.082031 94.605469 6.964844 94.597656 7.902344 C 94.609375 8.304688 94.585938 8.707031 94.535156 9.109375 C 94.753906 9.050781 94.972656 9.011719 95.195312 8.988281 C 95.78125 8.914062 96.339844 9.003906 96.871094 9.253906 C 97.613281 9.597656 98.175781 10.128906 98.550781 10.855469 C 98.898438 11.507812 99.089844 12.207031 99.128906 12.945312 C 99.195312 13.933594 99.007812 14.875 98.570312 15.765625 C 99.550781 15.773438 100.527344 15.855469 101.496094 16.003906 C 103.046875 16.234375 104.652344 16.609375 105.777344 17.316406 C 107.28125 18.265625 108.011719 19.679688 107.390625 21.417969 C 106.890625 22.707031 105.882812 23.632812 104.636719 24.390625 C 104.371094 24.554688 104.101562 24.726562 103.816406 24.878906 C 102.769531 25.441406 101.664062 25.859375 100.507812 26.136719 C 99.375 26.371094 98.234375 26.515625 97.078125 26.566406 L 87.480469 27.585938 C 86.648438 27.664062 85.8125 27.691406 84.976562 27.660156 C 83.117188 27.589844 81.265625 27.289062 79.425781 27.320312 C 78.390625 27.320312 77.375 27.289062 76.363281 27.300781 C 75.675781 27.300781 74.996094 27.328125 74.3125 27.347656 C 73.1875 27.382812 72.070312 27.4375 70.925781 27.40625 C 71.113281 28.332031 71.132812 29.265625 70.984375 30.199219 C 70.808594 31.179688 70.460938 32.097656 69.949219 32.949219 C 69.710938 33.359375 69.445312 33.75 69.152344 34.121094 Z M 50.121094 24.804688 C 49.910156 24.785156 49.730469 24.703125 49.582031 24.5625 C 49.429688 24.417969 49.335938 24.242188 49.308594 24.035156 C 49.179688 23.292969 48.847656 22.652344 48.3125 22.117188 C 48.070312 21.878906 47.804688 21.664062 47.523438 21.472656 C 46.628906 20.828125 45.589844 20.378906 44.667969 20.636719 L 44.65625 20.636719 C 44.335938 20.714844 43.921875 21.003906 43.480469 21.28125 C 42.960938 21.609375 42.40625 21.929688 41.917969 22 C 41.425781 22.101562 40.976562 22.007812 40.566406 21.710938 C 40.214844 21.425781 39.949219 21.070312 39.773438 20.652344 C 39.464844 20.007812 39.226562 19.164062 38.996094 18.734375 L 38.996094 18.71875 C 38.585938 17.875 38.121094 17.058594 37.609375 16.269531 C 37.136719 15.488281 36.578125 14.773438 35.9375 14.121094 C 35.425781 13.648438 34.855469 13.257812 34.230469 12.949219 C 33.199219 12.496094 32.121094 12.273438 30.996094 12.285156 C 29.285156 12.285156 27.652344 12.648438 26.101562 13.371094 C 22.8125 14.824219 19.972656 17.59375 19.269531 21 C 19.246094 21.128906 19.191406 21.242188 19.109375 21.339844 C 19.125 21.433594 19.125 21.527344 19.109375 21.617188 C 19.070312 21.839844 18.960938 22.015625 18.777344 22.144531 C 18.59375 22.273438 18.390625 22.320312 18.171875 22.285156 C 16.4375 22.019531 14.757812 22.21875 13.136719 22.882812 C 11.632812 23.515625 10.359375 24.582031 9.847656 26.238281 C 9.742188 26.617188 9.761719 26.992188 9.914062 27.355469 C 10.164062 28.027344 10.691406 28.628906 11.175781 29.121094 C 11.269531 29.210938 12.230469 30.140625 12.5625 30.542969 C 12.738281 30.738281 12.820312 30.964844 12.8125 31.226562 C 12.804688 31.488281 12.707031 31.710938 12.523438 31.894531 C 12.117188 32.175781 11.667969 32.335938 11.171875 32.367188 C 10.386719 32.460938 9.394531 32.367188 8.878906 32.421875 C 7.589844 32.539062 6.171875 32.710938 4.902344 33.1875 C 4.109375 33.460938 3.417969 33.890625 2.820312 34.476562 C 2.121094 35.160156 1.636719 36.085938 1.773438 36.929688 C 1.859375 37.425781 2.191406 37.855469 2.765625 38.164062 C 3.148438 38.328125 3.550781 38.433594 3.96875 38.476562 C 4.738281 38.589844 5.53125 38.640625 6.296875 38.8125 L 6.308594 38.8125 C 8.554688 39.398438 10.96875 39.585938 13.398438 39.546875 C 15.121094 39.523438 16.839844 39.402344 18.515625 39.269531 C 19.265625 39.207031 20.003906 39.125 20.734375 39.070312 L 20.757812 39.070312 L 35.542969 38.929688 C 37.300781 38.871094 39.050781 38.648438 40.804688 38.542969 C 41.582031 38.496094 42.363281 38.472656 43.148438 38.492188 C 43.734375 38.507812 44.316406 38.5625 44.898438 38.628906 C 46.1875 38.78125 47.476562 39.027344 48.769531 39.144531 C 49.382812 39.199219 50.003906 39.238281 50.625 39.253906 C 52.128906 39.296875 53.632812 39.253906 55.121094 39.375 C 57.003906 39.527344 58.929688 39.773438 60.859375 40.007812 C 62.105469 40.15625 63.351562 40.308594 64.59375 40.371094 C 65.90625 40.453125 67.214844 40.410156 68.519531 40.246094 C 69.355469 40.132812 70.332031 40.109375 71.222656 39.871094 C 71.714844 39.753906 72.15625 39.53125 72.539062 39.199219 C 72.738281 38.953125 72.792969 38.679688 72.703125 38.378906 C 72.628906 38.007812 72.457031 37.6875 72.183594 37.421875 L 72.171875 37.402344 C 71.59375 36.765625 70.902344 36.289062 70.105469 35.976562 C 69.28125 35.644531 68.429688 35.488281 67.542969 35.5 C 67.339844 35.507812 67.164062 35.445312 67.011719 35.304688 C 66.863281 35.167969 66.785156 35 66.777344 34.796875 C 66.773438 34.722656 66.78125 34.652344 66.800781 34.582031 C 66.8125 34.359375 66.898438 34.171875 67.066406 34.023438 C 67.667969 33.511719 68.148438 32.902344 68.507812 32.199219 C 68.863281 31.492188 69.070312 30.742188 69.121094 29.953125 C 69.308594 28.355469 69.007812 26.859375 68.21875 25.457031 C 68.082031 25.203125 67.914062 24.96875 67.71875 24.753906 C 67.359375 24.351562 66.957031 23.992188 66.589844 23.570312 C 66.121094 22.996094 65.613281 22.453125 65.070312 21.949219 C 64.734375 21.664062 64.359375 21.433594 63.953125 21.257812 C 63.042969 20.867188 62.097656 20.605469 61.113281 20.480469 C 60.691406 20.4375 60.269531 20.417969 59.847656 20.425781 C 58.4375 20.425781 57.03125 20.640625 55.84375 21.207031 L 55.8125 21.207031 C 54.886719 21.539062 54.023438 22 53.234375 22.59375 C 52.425781 23.230469 51.660156 23.917969 50.9375 24.648438 C 50.699219 24.886719 50.425781 24.9375 50.121094 24.804688 Z M 79.734375 8.203125 C 79.660156 8.21875 79.582031 8.230469 79.503906 8.234375 C 79.367188 8.234375 79.234375 8.210938 79.105469 8.160156 C 78.980469 8.113281 78.867188 8.039062 78.765625 7.945312 C 78.667969 7.851562 78.589844 7.738281 78.535156 7.613281 C 78.476562 7.488281 78.449219 7.359375 78.445312 7.21875 C 78.472656 6.515625 78.292969 5.871094 77.898438 5.285156 C 77.425781 4.644531 76.875 4.082031 76.246094 3.589844 C 75.398438 2.960938 74.46875 2.492188 73.460938 2.183594 C 72.449219 1.871094 71.417969 1.742188 70.363281 1.785156 C 68.179688 1.855469 66.242188 2.578125 64.546875 3.960938 C 63.546875 4.789062 62.707031 5.753906 62.019531 6.855469 C 61.363281 7.921875 61.003906 9.082031 60.945312 10.332031 C 60.96875 10.613281 61.027344 10.882812 61.113281 11.148438 C 61.289062 11.742188 61.40625 12.34375 61.476562 12.957031 C 61.519531 13.203125 61.5 13.441406 61.417969 13.679688 C 61.339844 13.875 61.210938 14.03125 61.035156 14.140625 C 60.796875 14.425781 60.496094 14.535156 60.136719 14.472656 C 59.730469 14.414062 58.714844 14.214844 58.621094 14.199219 C 58.082031 14.132812 57.542969 14.105469 57 14.121094 C 56.46875 14.132812 55.941406 14.1875 55.417969 14.289062 C 54.5 14.484375 53.628906 14.804688 52.804688 15.25 C 52.230469 15.507812 51.679688 15.816406 51.15625 16.167969 C 49.851562 17.113281 48.914062 18.339844 48.34375 19.847656 C 48.429688 19.914062 48.515625 19.976562 48.601562 20.042969 C 48.9375 20.328125 49.25 20.632812 49.539062 20.964844 C 50.035156 21.496094 50.441406 22.089844 50.761719 22.746094 C 51.230469 22.296875 51.703125 21.855469 52.183594 21.425781 C 52.535156 21.113281 52.871094 20.78125 53.246094 20.503906 C 53.796875 20.082031 54.386719 19.71875 55.011719 19.410156 L 55.03125 19.410156 C 56.277344 18.898438 57.574219 18.648438 58.921875 18.65625 C 59.5 18.671875 60.078125 18.722656 60.652344 18.804688 C 61.996094 18.949219 63.300781 19.265625 64.558594 19.761719 C 65.117188 19.992188 65.628906 20.300781 66.097656 20.683594 C 66.71875 21.21875 67.300781 21.792969 67.847656 22.402344 C 68.304688 22.878906 68.804688 23.261719 69.230469 23.746094 C 69.453125 23.992188 69.648438 24.257812 69.820312 24.542969 C 69.992188 24.84375 70.144531 25.152344 70.285156 25.46875 C 70.441406 25.484375 70.597656 25.519531 70.75 25.535156 C 71.75 25.636719 72.730469 25.75 73.714844 25.78125 C 74.652344 25.808594 75.585938 25.78125 76.519531 25.742188 C 77.457031 25.699219 78.398438 25.613281 79.359375 25.554688 C 80.1875 25.523438 81.019531 25.542969 81.851562 25.589844 C 82.789062 25.636719 83.730469 25.691406 84.667969 25.765625 C 85.601562 25.84375 86.472656 25.9375 87.378906 25.933594 C 88.324219 25.90625 89.269531 25.863281 90.207031 25.765625 C 92.441406 25.535156 94.660156 25.121094 96.898438 24.886719 C 97.796875 24.773438 98.910156 24.550781 100.078125 24.292969 C 101.113281 24.105469 102.125 23.816406 103.109375 23.433594 C 103.355469 23.335938 103.59375 23.21875 103.828125 23.089844 C 104.742188 22.582031 105.363281 21.832031 105.683594 20.839844 C 105.9375 20.054688 105.519531 19.503906 104.898438 19.046875 C 104.566406 18.804688 104.21875 18.597656 103.847656 18.425781 C 103.050781 18.042969 102.21875 17.753906 101.351562 17.5625 C 99.777344 17.222656 98.210938 17.1875 97.40625 17.335938 C 97.136719 17.390625 96.914062 17.316406 96.726562 17.121094 C 96.589844 17.058594 96.480469 16.96875 96.390625 16.851562 C 96.304688 16.734375 96.25 16.601562 96.226562 16.457031 C 96.207031 16.3125 96.21875 16.167969 96.269531 16.03125 C 96.320312 15.894531 96.398438 15.773438 96.511719 15.675781 C 97.09375 15.117188 97.222656 14.089844 97.140625 13.121094 C 97.105469 12.648438 96.996094 12.1875 96.8125 11.746094 C 96.675781 11.351562 96.4375 11.027344 96.105469 10.777344 C 95.859375 10.660156 95.601562 10.609375 95.332031 10.632812 C 94.800781 10.664062 94.300781 10.792969 93.824219 11.023438 C 93.75 11.066406 93.667969 11.09375 93.582031 11.105469 C 93.210938 11.238281 92.882812 11.167969 92.601562 10.894531 C 92.316406 10.621094 92.234375 10.296875 92.355469 9.921875 C 92.390625 9.75 92.410156 9.578125 92.449219 9.410156 C 92.621094 8.773438 92.71875 8.128906 92.738281 7.472656 C 92.738281 6.96875 92.636719 6.488281 92.433594 6.023438 C 92.054688 5.273438 91.226562 4.621094 90.28125 4.195312 C 89.367188 3.769531 88.40625 3.597656 87.402344 3.671875 L 87.386719 3.671875 C 86.421875 3.765625 85.496094 4.015625 84.617188 4.425781 C 84.21875 4.578125 83.832031 4.75 83.453125 4.949219 C 82.199219 5.691406 81.15625 6.664062 80.332031 7.863281 C 80.191406 8.082031 79.992188 8.195312 79.734375 8.203125 Z M 79.734375 8.203125 " fill-opacity="1" fill-rule="evenodd"/></g></svg>