<svg xmlns="http://www.w3.org/2000/svg" xmlns:xlink="http://www.w3.org/1999/xlink" width="546" zoomAndPan="magnify" viewBox="0 0 409.5 409.500001" height="546" preserveAspectRatio="xMidYMid meet" version="1.0"><defs><clipPath id="82a9e33653"><path d="M 0 0 L 102.71875 0 L 102.71875 102.71875 L 0 102.71875 Z M 0 0 " clip-rule="nonzero"/></clipPath><clipPath id="bf4ce556fa"><path d="M 0 0 L 102.71875 0 L 102.71875 102.71875 L 0 102.71875 Z M 0 0 " clip-rule="nonzero"/></clipPath><clipPath id="13ebc9b759"><rect x="0" width="103" y="0" height="103"/></clipPath><clipPath id="f896d95e89"><path d="M 101.972656 0 L 204.691406 0 L 204.691406 102.71875 L 101.972656 102.71875 Z M 101.972656 0 " clip-rule="nonzero"/></clipPath><clipPath id="d6989d5926"><path d="M 0.972656 0 L 103.691406 0 L 103.691406 102.71875 L 0.972656 102.71875 Z M 0.972656 0 " clip-rule="nonzero"/></clipPath><clipPath id="fcf8c19c3d"><rect x="0" width="104" y="0" height="103"/></clipPath><clipPath id="4e0727fa85"><path d="M 203.941406 0 L 306.660156 0 L 306.660156 102.71875 L 203.941406 102.71875 Z M 203.941406 0 " clip-rule="nonzero"/></clipPath><clipPath id="5eafc0c715"><path d="M 0.941406 0 L 103.660156 0 L 103.660156 102.71875 L 0.941406 102.71875 Z M 0.941406 0 " clip-rule="nonzero"/></clipPath><clipPath id="7f284aa602"><rect x="0" width="104" y="0" height="103"/></clipPath><clipPath id="15645c8a45"><path d="M 305.914062 0 L 408.632812 0 L 408.632812 102.71875 L 305.914062 102.71875 Z M 305.914062 0 " clip-rule="nonzero"/></clipPath><clipPath id="5d0e8ce1a1"><path d="M 0.914062 0 L 103.632812 0 L 103.632812 102.71875 L 0.914062 102.71875 Z M 0.914062 0 " clip-rule="nonzero"/></clipPath><clipPath id="8ece6744df"><rect x="0" width="104" y="0" height="103"/></clipPath><clipPath id="100152eba6"><path d="M 101.972656 101.972656 L 204.691406 101.972656 L 204.691406 204.691406 L 101.972656 204.691406 Z M 101.972656 101.972656 " clip-rule="nonzero"/></clipPath><clipPath id="ba9a8460f8"><path d="M 0.972656 0.972656 L 103.691406 0.972656 L 103.691406 103.691406 L 0.972656 103.691406 Z M 0.972656 0.972656 " clip-rule="nonzero"/></clipPath><clipPath id="4a52cdfe1f"><rect x="0" width="104" y="0" height="104"/></clipPath><clipPath id="6d409965d9"><path d="M 203.941406 101.972656 L 306.660156 101.972656 L 306.660156 204.691406 L 203.941406 204.691406 Z M 203.941406 101.972656 " clip-rule="nonzero"/></clipPath><clipPath id="0b7481c190"><path d="M 0.941406 0.972656 L 103.660156 0.972656 L 103.660156 103.691406 L 0.941406 103.691406 Z M 0.941406 0.972656 " clip-rule="nonzero"/></clipPath><clipPath id="509df6658b"><rect x="0" width="104" y="0" height="104"/></clipPath><clipPath id="e0f3c0e1c0"><path d="M 305.914062 101.972656 L 408.632812 101.972656 L 408.632812 204.691406 L 305.914062 204.691406 Z M 305.914062 101.972656 " clip-rule="nonzero"/></clipPath><clipPath id="6cbea4f479"><path d="M 0.914062 0.972656 L 103.632812 0.972656 L 103.632812 103.691406 L 0.914062 103.691406 Z M 0.914062 0.972656 " clip-rule="nonzero"/></clipPath><clipPath id="5167256e59"><rect x="0" width="104" y="0" height="104"/></clipPath><clipPath id="1c5c66f769"><path d="M 0 101.972656 L 102.71875 101.972656 L 102.71875 204.691406 L 0 204.691406 Z M 0 101.972656 " clip-rule="nonzero"/></clipPath><clipPath id="3433ba338d"><path d="M 0 0.972656 L 102.71875 0.972656 L 102.71875 103.691406 L 0 103.691406 Z M 0 0.972656 " clip-rule="nonzero"/></clipPath><clipPath id="c7f6dec349"><rect x="0" width="103" y="0" height="104"/></clipPath><clipPath id="7eab185750"><path d="M 0 203.941406 L 102.71875 203.941406 L 102.71875 306.660156 L 0 306.660156 Z M 0 203.941406 " clip-rule="nonzero"/></clipPath><clipPath id="08525da9f3"><path d="M 0 0.941406 L 102.71875 0.941406 L 102.71875 103.660156 L 0 103.660156 Z M 0 0.941406 " clip-rule="nonzero"/></clipPath><clipPath id="91e16a7228"><rect x="0" width="103" y="0" height="104"/></clipPath><clipPath id="5cf27faae4"><path d="M 101.972656 203.941406 L 204.691406 203.941406 L 204.691406 306.660156 L 101.972656 306.660156 Z M 101.972656 203.941406 " clip-rule="nonzero"/></clipPath><clipPath id="9c74a07d45"><path d="M 0.972656 0.941406 L 103.691406 0.941406 L 103.691406 103.660156 L 0.972656 103.660156 Z M 0.972656 0.941406 " clip-rule="nonzero"/></clipPath><clipPath id="614a2bb643"><rect x="0" width="104" y="0" height="104"/></clipPath><clipPath id="876a050b34"><path d="M 203.941406 203.941406 L 306.660156 203.941406 L 306.660156 306.660156 L 203.941406 306.660156 Z M 203.941406 203.941406 " clip-rule="nonzero"/></clipPath><clipPath id="0f64d8e0ed"><path d="M 0.941406 0.941406 L 103.660156 0.941406 L 103.660156 103.660156 L 0.941406 103.660156 Z M 0.941406 0.941406 " clip-rule="nonzero"/></clipPath><clipPath id="301734f682"><rect x="0" width="104" y="0" height="104"/></clipPath><clipPath id="abee9c54b1"><path d="M 305.914062 203.941406 L 408.632812 203.941406 L 408.632812 306.660156 L 305.914062 306.660156 Z M 305.914062 203.941406 " clip-rule="nonzero"/></clipPath><clipPath id="6ad107a8a8"><path d="M 0.914062 0.941406 L 103.632812 0.941406 L 103.632812 103.660156 L 0.914062 103.660156 Z M 0.914062 0.941406 " clip-rule="nonzero"/></clipPath><clipPath id="3095110170"><rect x="0" width="104" y="0" height="104"/></clipPath><clipPath id="3d5259e377"><path d="M 101.972656 305.914062 L 204.691406 305.914062 L 204.691406 408.632812 L 101.972656 408.632812 Z M 101.972656 305.914062 " clip-rule="nonzero"/></clipPath><clipPath id="8c6bdb2251"><path d="M 0.972656 0.914062 L 103.691406 0.914062 L 103.691406 103.632812 L 0.972656 103.632812 Z M 0.972656 0.914062 " clip-rule="nonzero"/></clipPath><clipPath id="374ae052d3"><rect x="0" width="104" y="0" height="104"/></clipPath><clipPath id="ed7d9fdc30"><path d="M 203.941406 305.914062 L 306.660156 305.914062 L 306.660156 408.632812 L 203.941406 408.632812 Z M 203.941406 305.914062 " clip-rule="nonzero"/></clipPath><clipPath id="429668f692"><path d="M 0.941406 0.914062 L 103.660156 0.914062 L 103.660156 103.632812 L 0.941406 103.632812 Z M 0.941406 0.914062 " clip-rule="nonzero"/></clipPath><clipPath id="9ff24fcd81"><rect x="0" width="104" y="0" height="104"/></clipPath><clipPath id="2912414148"><path d="M 305.914062 305.914062 L 408.632812 305.914062 L 408.632812 408.632812 L 305.914062 408.632812 Z M 305.914062 305.914062 " clip-rule="nonzero"/></clipPath><clipPath id="d0e34ccf48"><path d="M 0.914062 0.914062 L 103.632812 0.914062 L 103.632812 103.632812 L 0.914062 103.632812 Z M 0.914062 0.914062 " clip-rule="nonzero"/></clipPath><clipPath id="b38bd6c1e3"><rect x="0" width="104" y="0" height="104"/></clipPath><clipPath id="76c68bb35c"><path d="M 0 305.914062 L 102.71875 305.914062 L 102.71875 408.632812 L 0 408.632812 Z M 0 305.914062 " clip-rule="nonzero"/></clipPath><clipPath id="dc97168f30"><path d="M 0 0.914062 L 102.71875 0.914062 L 102.71875 103.632812 L 0 103.632812 Z M 0 0.914062 " clip-rule="nonzero"/></clipPath><clipPath id="e412633ae5"><rect x="0" width="103" y="0" height="104"/></clipPath></defs><path fill="#ffffff" d="M 0 0 L 409 0 L 409 409 L 0 409 Z M 0 0 " fill-opacity="1" fill-rule="nonzero"/><g clip-path="url(#82a9e33653)"><g transform="matrix(1, 0, 0, 1, 0, 0.000000000000011877)"><g clip-path="url(#13ebc9b759)"><g clip-path="url(#bf4ce556fa)"><path fill="#e0e782" d="M 0 0 L 102.71875 0 L 102.71875 102.71875 L 0 102.71875 Z M 0 0 " fill-opacity="1" fill-rule="nonzero"/></g></g></g></g><g clip-path="url(#f896d95e89)"><g transform="matrix(1, 0, 0, 1, 101, 0.000000000000011877)"><g clip-path="url(#fcf8c19c3d)"><g clip-path="url(#d6989d5926)"><path fill="#fff7e1" d="M 0.972656 0 L 103.691406 0 L 103.691406 102.71875 L 0.972656 102.71875 Z M 0.972656 0 " fill-opacity="1" fill-rule="nonzero"/></g></g></g></g><g clip-path="url(#4e0727fa85)"><g transform="matrix(1, 0, 0, 1, 203, 0.000000000000011877)"><g clip-path="url(#7f284aa602)"><g clip-path="url(#5eafc0c715)"><path fill="#e0e782" d="M 0.941406 0 L 103.660156 0 L 103.660156 102.71875 L 0.941406 102.71875 Z M 0.941406 0 " fill-opacity="1" fill-rule="nonzero"/></g></g></g></g><g clip-path="url(#15645c8a45)"><g transform="matrix(1, 0, 0, 1, 305, 0.000000000000011877)"><g clip-path="url(#8ece6744df)"><g clip-path="url(#5d0e8ce1a1)"><path fill="#fff7e1" d="M 0.914062 0 L 103.632812 0 L 103.632812 102.71875 L 0.914062 102.71875 Z M 0.914062 0 " fill-opacity="1" fill-rule="nonzero"/></g></g></g></g><g clip-path="url(#100152eba6)"><g transform="matrix(1, 0, 0, 1, 101, 101)"><g clip-path="url(#4a52cdfe1f)"><g clip-path="url(#ba9a8460f8)"><path fill="#e0e782" d="M 0.972656 0.972656 L 103.691406 0.972656 L 103.691406 103.691406 L 0.972656 103.691406 Z M 0.972656 0.972656 " fill-opacity="1" fill-rule="nonzero"/></g></g></g></g><g clip-path="url(#6d409965d9)"><g transform="matrix(1, 0, 0, 1, 203, 101)"><g clip-path="url(#509df6658b)"><g clip-path="url(#0b7481c190)"><path fill="#fff7e1" d="M 0.941406 0.972656 L 103.660156 0.972656 L 103.660156 103.691406 L 0.941406 103.691406 Z M 0.941406 0.972656 " fill-opacity="1" fill-rule="nonzero"/></g></g></g></g><g clip-path="url(#e0f3c0e1c0)"><g transform="matrix(1, 0, 0, 1, 305, 101)"><g clip-path="url(#5167256e59)"><g clip-path="url(#6cbea4f479)"><path fill="#e0e782" d="M 0.914062 0.972656 L 103.632812 0.972656 L 103.632812 103.691406 L 0.914062 103.691406 Z M 0.914062 0.972656 " fill-opacity="1" fill-rule="nonzero"/></g></g></g></g><g clip-path="url(#1c5c66f769)"><g transform="matrix(1, 0, 0, 1, 0, 101)"><g clip-path="url(#c7f6dec349)"><g clip-path="url(#3433ba338d)"><path fill="#fff7e1" d="M 0 0.972656 L 102.71875 0.972656 L 102.71875 103.691406 L 0 103.691406 Z M 0 0.972656 " fill-opacity="1" fill-rule="nonzero"/></g></g></g></g><g clip-path="url(#7eab185750)"><g transform="matrix(1, 0, 0, 1, 0, 203)"><g clip-path="url(#91e16a7228)"><g clip-path="url(#08525da9f3)"><path fill="#e0e782" d="M 0 0.941406 L 102.71875 0.941406 L 102.71875 103.660156 L 0 103.660156 Z M 0 0.941406 " fill-opacity="1" fill-rule="nonzero"/></g></g></g></g><g clip-path="url(#5cf27faae4)"><g transform="matrix(1, 0, 0, 1, 101, 203)"><g clip-path="url(#614a2bb643)"><g clip-path="url(#9c74a07d45)"><path fill="#fff7e1" d="M 0.972656 0.941406 L 103.691406 0.941406 L 103.691406 103.660156 L 0.972656 103.660156 Z M 0.972656 0.941406 " fill-opacity="1" fill-rule="nonzero"/></g></g></g></g><g clip-path="url(#876a050b34)"><g transform="matrix(1, 0, 0, 1, 203, 203)"><g clip-path="url(#301734f682)"><g clip-path="url(#0f64d8e0ed)"><path fill="#e0e782" d="M 0.941406 0.941406 L 103.660156 0.941406 L 103.660156 103.660156 L 0.941406 103.660156 Z M 0.941406 0.941406 " fill-opacity="1" fill-rule="nonzero"/></g></g></g></g><g clip-path="url(#abee9c54b1)"><g transform="matrix(1, 0, 0, 1, 305, 203)"><g clip-path="url(#3095110170)"><g clip-path="url(#6ad107a8a8)"><path fill="#fff7e1" d="M 0.914062 0.941406 L 103.632812 0.941406 L 103.632812 103.660156 L 0.914062 103.660156 Z M 0.914062 0.941406 " fill-opacity="1" fill-rule="nonzero"/></g></g></g></g><g clip-path="url(#3d5259e377)"><g transform="matrix(1, 0, 0, 1, 101, 305)"><g clip-path="url(#374ae052d3)"><g clip-path="url(#8c6bdb2251)"><path fill="#e0e782" d="M 0.972656 0.914062 L 103.691406 0.914062 L 103.691406 103.632812 L 0.972656 103.632812 Z M 0.972656 0.914062 " fill-opacity="1" fill-rule="nonzero"/></g></g></g></g><g clip-path="url(#ed7d9fdc30)"><g transform="matrix(1, 0, 0, 1, 203, 305)"><g clip-path="url(#9ff24fcd81)"><g clip-path="url(#429668f692)"><path fill="#fff7e1" d="M 0.941406 0.914062 L 103.660156 0.914062 L 103.660156 103.632812 L 0.941406 103.632812 Z M 0.941406 0.914062 " fill-opacity="1" fill-rule="nonzero"/></g></g></g></g><g clip-path="url(#2912414148)"><g transform="matrix(1, 0, 0, 1, 305, 305)"><g clip-path="url(#b38bd6c1e3)"><g clip-path="url(#d0e34ccf48)"><path fill="#e0e782" d="M 0.914062 0.914062 L 103.632812 0.914062 L 103.632812 103.632812 L 0.914062 103.632812 Z M 0.914062 0.914062 " fill-opacity="1" fill-rule="nonzero"/></g></g></g></g><g clip-path="url(#76c68bb35c)"><g transform="matrix(1, 0, 0, 1, 0, 305)"><g clip-path="url(#e412633ae5)"><g clip-path="url(#dc97168f30)"><path fill="#fff7e1" d="M 0 0.914062 L 102.71875 0.914062 L 102.71875 103.632812 L 0 103.632812 Z M 0 0.914062 " fill-opacity="1" fill-rule="nonzero"/></g></g></g></g></svg>