<svg xmlns="http://www.w3.org/2000/svg" xmlns:xlink="http://www.w3.org/1999/xlink" width="546" zoomAndPan="magnify" viewBox="0 0 409.5 409.500001" height="546" preserveAspectRatio="xMidYMid meet" version="1.0"><defs><clipPath id="1de878ac92"><path d="M 0 0 L 102.71875 0 L 102.71875 102.71875 L 0 102.71875 Z M 0 0 " clip-rule="nonzero"/></clipPath><clipPath id="9591d3529d"><path d="M 0 0 L 102.71875 0 L 102.71875 102.71875 L 0 102.71875 Z M 0 0 " clip-rule="nonzero"/></clipPath><clipPath id="cd4c3f5259"><rect x="0" width="103" y="0" height="103"/></clipPath><clipPath id="f927cf22c0"><path d="M 101.972656 0 L 204.691406 0 L 204.691406 102.71875 L 101.972656 102.71875 Z M 101.972656 0 " clip-rule="nonzero"/></clipPath><clipPath id="9c3a40e0b3"><path d="M 0.972656 0 L 103.691406 0 L 103.691406 102.71875 L 0.972656 102.71875 Z M 0.972656 0 " clip-rule="nonzero"/></clipPath><clipPath id="c560f85a18"><rect x="0" width="104" y="0" height="103"/></clipPath><clipPath id="b88e6be436"><path d="M 203.941406 0 L 306.660156 0 L 306.660156 102.71875 L 203.941406 102.71875 Z M 203.941406 0 " clip-rule="nonzero"/></clipPath><clipPath id="96aff7414b"><path d="M 0.941406 0 L 103.660156 0 L 103.660156 102.71875 L 0.941406 102.71875 Z M 0.941406 0 " clip-rule="nonzero"/></clipPath><clipPath id="b46d81aae3"><rect x="0" width="104" y="0" height="103"/></clipPath><clipPath id="beeb4af1c7"><path d="M 305.914062 0 L 408.632812 0 L 408.632812 102.71875 L 305.914062 102.71875 Z M 305.914062 0 " clip-rule="nonzero"/></clipPath><clipPath id="182ebf2352"><path d="M 0.914062 0 L 103.632812 0 L 103.632812 102.71875 L 0.914062 102.71875 Z M 0.914062 0 " clip-rule="nonzero"/></clipPath><clipPath id="a6b2d990b9"><rect x="0" width="104" y="0" height="103"/></clipPath><clipPath id="8e02afc4c1"><path d="M 101.972656 101.972656 L 204.691406 101.972656 L 204.691406 204.691406 L 101.972656 204.691406 Z M 101.972656 101.972656 " clip-rule="nonzero"/></clipPath><clipPath id="de5ae9002c"><path d="M 0.972656 0.972656 L 103.691406 0.972656 L 103.691406 103.691406 L 0.972656 103.691406 Z M 0.972656 0.972656 " clip-rule="nonzero"/></clipPath><clipPath id="ed8e825796"><rect x="0" width="104" y="0" height="104"/></clipPath><clipPath id="1f26e14526"><path d="M 203.941406 101.972656 L 306.660156 101.972656 L 306.660156 204.691406 L 203.941406 204.691406 Z M 203.941406 101.972656 " clip-rule="nonzero"/></clipPath><clipPath id="62d778530d"><path d="M 0.941406 0.972656 L 103.660156 0.972656 L 103.660156 103.691406 L 0.941406 103.691406 Z M 0.941406 0.972656 " clip-rule="nonzero"/></clipPath><clipPath id="ad80de16fd"><rect x="0" width="104" y="0" height="104"/></clipPath><clipPath id="caaead7530"><path d="M 305.914062 101.972656 L 408.632812 101.972656 L 408.632812 204.691406 L 305.914062 204.691406 Z M 305.914062 101.972656 " clip-rule="nonzero"/></clipPath><clipPath id="85881d00da"><path d="M 0.914062 0.972656 L 103.632812 0.972656 L 103.632812 103.691406 L 0.914062 103.691406 Z M 0.914062 0.972656 " clip-rule="nonzero"/></clipPath><clipPath id="cccd705be1"><rect x="0" width="104" y="0" height="104"/></clipPath><clipPath id="afcccb41f1"><path d="M 0 101.972656 L 102.71875 101.972656 L 102.71875 204.691406 L 0 204.691406 Z M 0 101.972656 " clip-rule="nonzero"/></clipPath><clipPath id="6bec9ece36"><path d="M 0 0.972656 L 102.71875 0.972656 L 102.71875 103.691406 L 0 103.691406 Z M 0 0.972656 " clip-rule="nonzero"/></clipPath><clipPath id="e5205e9cb4"><rect x="0" width="103" y="0" height="104"/></clipPath><clipPath id="e6e54384e3"><path d="M 0 203.941406 L 102.71875 203.941406 L 102.71875 306.660156 L 0 306.660156 Z M 0 203.941406 " clip-rule="nonzero"/></clipPath><clipPath id="7e60531e2f"><path d="M 0 0.941406 L 102.71875 0.941406 L 102.71875 103.660156 L 0 103.660156 Z M 0 0.941406 " clip-rule="nonzero"/></clipPath><clipPath id="d3740c9d58"><rect x="0" width="103" y="0" height="104"/></clipPath><clipPath id="459669a502"><path d="M 101.972656 203.941406 L 204.691406 203.941406 L 204.691406 306.660156 L 101.972656 306.660156 Z M 101.972656 203.941406 " clip-rule="nonzero"/></clipPath><clipPath id="2201af27de"><path d="M 0.972656 0.941406 L 103.691406 0.941406 L 103.691406 103.660156 L 0.972656 103.660156 Z M 0.972656 0.941406 " clip-rule="nonzero"/></clipPath><clipPath id="0414e5fbd5"><rect x="0" width="104" y="0" height="104"/></clipPath><clipPath id="96a7d46973"><path d="M 203.941406 203.941406 L 306.660156 203.941406 L 306.660156 306.660156 L 203.941406 306.660156 Z M 203.941406 203.941406 " clip-rule="nonzero"/></clipPath><clipPath id="3d9e506309"><path d="M 0.941406 0.941406 L 103.660156 0.941406 L 103.660156 103.660156 L 0.941406 103.660156 Z M 0.941406 0.941406 " clip-rule="nonzero"/></clipPath><clipPath id="ad717609a0"><rect x="0" width="104" y="0" height="104"/></clipPath><clipPath id="ae73dc329b"><path d="M 305.914062 203.941406 L 408.632812 203.941406 L 408.632812 306.660156 L 305.914062 306.660156 Z M 305.914062 203.941406 " clip-rule="nonzero"/></clipPath><clipPath id="db80b41e9a"><path d="M 0.914062 0.941406 L 103.632812 0.941406 L 103.632812 103.660156 L 0.914062 103.660156 Z M 0.914062 0.941406 " clip-rule="nonzero"/></clipPath><clipPath id="1c0ced594b"><rect x="0" width="104" y="0" height="104"/></clipPath><clipPath id="0713032eae"><path d="M 101.972656 305.914062 L 204.691406 305.914062 L 204.691406 408.632812 L 101.972656 408.632812 Z M 101.972656 305.914062 " clip-rule="nonzero"/></clipPath><clipPath id="99fa35bdfd"><path d="M 0.972656 0.914062 L 103.691406 0.914062 L 103.691406 103.632812 L 0.972656 103.632812 Z M 0.972656 0.914062 " clip-rule="nonzero"/></clipPath><clipPath id="41462560d3"><rect x="0" width="104" y="0" height="104"/></clipPath><clipPath id="b81eaa9e86"><path d="M 203.941406 305.914062 L 306.660156 305.914062 L 306.660156 408.632812 L 203.941406 408.632812 Z M 203.941406 305.914062 " clip-rule="nonzero"/></clipPath><clipPath id="a8a5a69f0d"><path d="M 0.941406 0.914062 L 103.660156 0.914062 L 103.660156 103.632812 L 0.941406 103.632812 Z M 0.941406 0.914062 " clip-rule="nonzero"/></clipPath><clipPath id="179fc97d4b"><rect x="0" width="104" y="0" height="104"/></clipPath><clipPath id="0c842b9fbe"><path d="M 305.914062 305.914062 L 408.632812 305.914062 L 408.632812 408.632812 L 305.914062 408.632812 Z M 305.914062 305.914062 " clip-rule="nonzero"/></clipPath><clipPath id="c572d8f7f0"><path d="M 0.914062 0.914062 L 103.632812 0.914062 L 103.632812 103.632812 L 0.914062 103.632812 Z M 0.914062 0.914062 " clip-rule="nonzero"/></clipPath><clipPath id="e03da374d6"><rect x="0" width="104" y="0" height="104"/></clipPath><clipPath id="50472d5709"><path d="M 0 305.914062 L 102.71875 305.914062 L 102.71875 408.632812 L 0 408.632812 Z M 0 305.914062 " clip-rule="nonzero"/></clipPath><clipPath id="822c9cf5ed"><path d="M 0 0.914062 L 102.71875 0.914062 L 102.71875 103.632812 L 0 103.632812 Z M 0 0.914062 " clip-rule="nonzero"/></clipPath><clipPath id="025de9f836"><rect x="0" width="103" y="0" height="104"/></clipPath></defs><path fill="#ffffff" d="M 0 0 L 409 0 L 409 409 L 0 409 Z M 0 0 " fill-opacity="1" fill-rule="nonzero"/><g clip-path="url(#1de878ac92)"><g transform="matrix(1, 0, 0, 1, 0, 0.000000000000011877)"><g clip-path="url(#cd4c3f5259)"><g clip-path="url(#9591d3529d)"><path fill="#96a8d6" d="M 0 0 L 102.71875 0 L 102.71875 102.71875 L 0 102.71875 Z M 0 0 " fill-opacity="1" fill-rule="nonzero"/></g></g></g></g><g clip-path="url(#f927cf22c0)"><g transform="matrix(1, 0, 0, 1, 101, 0.000000000000011877)"><g clip-path="url(#c560f85a18)"><g clip-path="url(#9c3a40e0b3)"><path fill="#ffc9c9" d="M 0.972656 0 L 103.691406 0 L 103.691406 102.71875 L 0.972656 102.71875 Z M 0.972656 0 " fill-opacity="1" fill-rule="nonzero"/></g></g></g></g><g clip-path="url(#b88e6be436)"><g transform="matrix(1, 0, 0, 1, 203, 0.000000000000011877)"><g clip-path="url(#b46d81aae3)"><g clip-path="url(#96aff7414b)"><path fill="#96a8d6" d="M 0.941406 0 L 103.660156 0 L 103.660156 102.71875 L 0.941406 102.71875 Z M 0.941406 0 " fill-opacity="1" fill-rule="nonzero"/></g></g></g></g><g clip-path="url(#beeb4af1c7)"><g transform="matrix(1, 0, 0, 1, 305, 0.000000000000011877)"><g clip-path="url(#a6b2d990b9)"><g clip-path="url(#182ebf2352)"><path fill="#ffc9c9" d="M 0.914062 0 L 103.632812 0 L 103.632812 102.71875 L 0.914062 102.71875 Z M 0.914062 0 " fill-opacity="1" fill-rule="nonzero"/></g></g></g></g><g clip-path="url(#8e02afc4c1)"><g transform="matrix(1, 0, 0, 1, 101, 101)"><g clip-path="url(#ed8e825796)"><g clip-path="url(#de5ae9002c)"><path fill="#96a8d6" d="M 0.972656 0.972656 L 103.691406 0.972656 L 103.691406 103.691406 L 0.972656 103.691406 Z M 0.972656 0.972656 " fill-opacity="1" fill-rule="nonzero"/></g></g></g></g><g clip-path="url(#1f26e14526)"><g transform="matrix(1, 0, 0, 1, 203, 101)"><g clip-path="url(#ad80de16fd)"><g clip-path="url(#62d778530d)"><path fill="#ffc9c9" d="M 0.941406 0.972656 L 103.660156 0.972656 L 103.660156 103.691406 L 0.941406 103.691406 Z M 0.941406 0.972656 " fill-opacity="1" fill-rule="nonzero"/></g></g></g></g><g clip-path="url(#caaead7530)"><g transform="matrix(1, 0, 0, 1, 305, 101)"><g clip-path="url(#cccd705be1)"><g clip-path="url(#85881d00da)"><path fill="#96a8d6" d="M 0.914062 0.972656 L 103.632812 0.972656 L 103.632812 103.691406 L 0.914062 103.691406 Z M 0.914062 0.972656 " fill-opacity="1" fill-rule="nonzero"/></g></g></g></g><g clip-path="url(#afcccb41f1)"><g transform="matrix(1, 0, 0, 1, 0, 101)"><g clip-path="url(#e5205e9cb4)"><g clip-path="url(#6bec9ece36)"><path fill="#ffc9c9" d="M 0 0.972656 L 102.71875 0.972656 L 102.71875 103.691406 L 0 103.691406 Z M 0 0.972656 " fill-opacity="1" fill-rule="nonzero"/></g></g></g></g><g clip-path="url(#e6e54384e3)"><g transform="matrix(1, 0, 0, 1, 0, 203)"><g clip-path="url(#d3740c9d58)"><g clip-path="url(#7e60531e2f)"><path fill="#96a8d6" d="M 0 0.941406 L 102.71875 0.941406 L 102.71875 103.660156 L 0 103.660156 Z M 0 0.941406 " fill-opacity="1" fill-rule="nonzero"/></g></g></g></g><g clip-path="url(#459669a502)"><g transform="matrix(1, 0, 0, 1, 101, 203)"><g clip-path="url(#0414e5fbd5)"><g clip-path="url(#2201af27de)"><path fill="#ffc9c9" d="M 0.972656 0.941406 L 103.691406 0.941406 L 103.691406 103.660156 L 0.972656 103.660156 Z M 0.972656 0.941406 " fill-opacity="1" fill-rule="nonzero"/></g></g></g></g><g clip-path="url(#96a7d46973)"><g transform="matrix(1, 0, 0, 1, 203, 203)"><g clip-path="url(#ad717609a0)"><g clip-path="url(#3d9e506309)"><path fill="#96a8d6" d="M 0.941406 0.941406 L 103.660156 0.941406 L 103.660156 103.660156 L 0.941406 103.660156 Z M 0.941406 0.941406 " fill-opacity="1" fill-rule="nonzero"/></g></g></g></g><g clip-path="url(#ae73dc329b)"><g transform="matrix(1, 0, 0, 1, 305, 203)"><g clip-path="url(#1c0ced594b)"><g clip-path="url(#db80b41e9a)"><path fill="#ffc9c9" d="M 0.914062 0.941406 L 103.632812 0.941406 L 103.632812 103.660156 L 0.914062 103.660156 Z M 0.914062 0.941406 " fill-opacity="1" fill-rule="nonzero"/></g></g></g></g><g clip-path="url(#0713032eae)"><g transform="matrix(1, 0, 0, 1, 101, 305)"><g clip-path="url(#41462560d3)"><g clip-path="url(#99fa35bdfd)"><path fill="#96a8d6" d="M 0.972656 0.914062 L 103.691406 0.914062 L 103.691406 103.632812 L 0.972656 103.632812 Z M 0.972656 0.914062 " fill-opacity="1" fill-rule="nonzero"/></g></g></g></g><g clip-path="url(#b81eaa9e86)"><g transform="matrix(1, 0, 0, 1, 203, 305)"><g clip-path="url(#179fc97d4b)"><g clip-path="url(#a8a5a69f0d)"><path fill="#ffc9c9" d="M 0.941406 0.914062 L 103.660156 0.914062 L 103.660156 103.632812 L 0.941406 103.632812 Z M 0.941406 0.914062 " fill-opacity="1" fill-rule="nonzero"/></g></g></g></g><g clip-path="url(#0c842b9fbe)"><g transform="matrix(1, 0, 0, 1, 305, 305)"><g clip-path="url(#e03da374d6)"><g clip-path="url(#c572d8f7f0)"><path fill="#96a8d6" d="M 0.914062 0.914062 L 103.632812 0.914062 L 103.632812 103.632812 L 0.914062 103.632812 Z M 0.914062 0.914062 " fill-opacity="1" fill-rule="nonzero"/></g></g></g></g><g clip-path="url(#50472d5709)"><g transform="matrix(1, 0, 0, 1, 0, 305)"><g clip-path="url(#025de9f836)"><g clip-path="url(#822c9cf5ed)"><path fill="#ffc9c9" d="M 0 0.914062 L 102.71875 0.914062 L 102.71875 103.632812 L 0 103.632812 Z M 0 0.914062 " fill-opacity="1" fill-rule="nonzero"/></g></g></g></g></svg>